<svg width="64" height="64" viewBox="0 0 64 64" fill="none" xmlns="http://www.w3.org/2000/svg">
<path d="M31.9556 0C19.022 0 8.5 10.522 8.5 23.4556C8.5 29.397 12.2437 37.7915 19.6274 48.4062C25.0244 56.1655 30.3325 62.1699 30.5562 62.4219L31.9556 64L33.3555 62.4219C33.5786 62.1699 38.8867 56.1655 44.2842 48.4062C51.6675 37.7915 55.4116 29.397 55.4116 23.4556C55.4116 10.522 44.8892 0 31.9556 0ZM41.2329 46.2393C37.585 51.4873 33.8979 56.0039 31.9556 58.3081C30.0181 56.0103 26.3447 51.5107 22.6992 46.2695C15.8579 36.4346 12.2417 28.5454 12.2417 23.4556C12.2417 12.5854 21.0854 3.7417 31.9556 3.7417C42.8262 3.7417 51.6694 12.5854 51.6694 23.4556C51.6694 28.54 48.0605 36.4185 41.2329 46.2393Z" fill="#C09F77"/>
<path d="M31.9556 8.66907C24.3223 8.66907 18.1123 14.879 18.1123 22.5123C18.1123 30.1456 24.3223 36.3561 31.9556 36.3561C39.5894 36.3561 45.7993 30.1456 45.7993 22.5123C45.7993 14.879 39.5894 8.66907 31.9556 8.66907ZM31.9556 32.6144C26.3857 32.6144 21.854 28.0826 21.854 22.5123C21.854 16.9425 26.3857 12.4108 31.9556 12.4108C37.5259 12.4108 42.0576 16.9425 42.0576 22.5123C42.0576 28.0826 37.5259 32.6144 31.9556 32.6144Z" fill="#C09F77"/>
</svg>
