<svg width="76" height="76" viewBox="0 0 76 76" fill="none" xmlns="http://www.w3.org/2000/svg">
<g clip-path="url(#clip0_502_6039)">
<path d="M38.0481 6.82719e-10C30.5419 -4.50125e-05 23.2042 2.22577 16.963 6.39598C10.7218 10.5662 5.8574 16.4935 2.98489 23.4283C0.112385 30.3631 -0.639189 37.994 0.825212 45.356C2.28961 52.718 5.90422 59.4804 11.2119 64.7881C16.8384 70.4112 24.0884 74.1257 31.9391 75.4076C39.7898 76.6896 47.8448 75.4741 54.9677 71.9328C60.0376 69.3928 64.4803 65.7589 67.9753 61.2936L66.1037 59.8317C63.1171 63.6613 59.3782 66.8388 55.1172 69.1687C50.8562 71.4985 46.1633 72.9314 41.3276 73.3789C36.4918 73.8265 31.6157 73.2793 26.9994 71.7711C22.3832 70.2628 18.1246 67.8255 14.4859 64.6092C10.8473 61.3928 7.90563 57.4656 5.84217 53.0694C3.77871 48.6732 2.63714 43.901 2.48775 39.0469C2.33837 34.1928 3.18434 29.3596 4.97356 24.8448C6.76279 20.33 9.45737 16.2293 12.8914 12.7953C19.1236 6.5657 27.4459 2.87043 36.2466 2.42512C45.0472 1.97981 53.7 4.81614 60.5293 10.3848C67.3586 15.9535 71.8784 23.8584 73.2136 32.5685C74.5487 41.2787 72.6041 50.1744 67.7564 57.533L69.7382 58.842C73.5092 53.1201 75.6607 46.4841 75.9645 39.6381C76.2683 32.7921 74.713 25.9916 71.4636 19.9582C68.2143 13.9248 63.3921 8.88367 57.5089 5.36978C51.6256 1.85588 44.9008 0.000317597 38.0481 6.82715e-10V6.82719e-10Z" fill="#BF926C"/>
<path d="M4.84607 37.9519C4.84603 44.5187 6.79327 50.938 10.4415 56.398C14.0898 61.8581 19.2753 66.1137 25.3422 68.6267C31.4091 71.1397 38.0849 71.7972 44.5255 70.516C50.966 69.2349 56.8821 66.0727 61.5254 61.4292C66.1688 56.7858 69.331 50.8698 70.6121 44.4293C71.8932 37.9887 71.2357 31.3129 68.7227 25.246C66.2097 19.1791 61.9541 13.9937 56.494 10.3455C51.034 6.69719 44.6147 4.74996 38.048 4.75C30.2878 4.75 23.0304 7.33281 17.0604 12.2204L18.5647 14.0582C23.0843 10.3734 28.5564 8.04607 34.3456 7.34626C40.1349 6.64644 46.0039 7.60288 51.2714 10.1046C56.5389 12.6062 60.9889 16.5506 64.1048 21.4797C67.2207 26.4088 68.8748 32.1205 68.875 37.9519C68.8751 44.0489 67.0672 50.009 63.6799 55.0785C60.2926 60.148 55.4781 64.0992 49.8452 66.4324C44.2122 68.7657 38.014 69.3761 32.0341 68.1866C26.0542 66.9971 20.5614 64.0611 16.2502 59.7498C13.3876 56.8873 11.1168 53.4889 9.56756 49.7488C8.01831 46.0087 7.22092 42.0001 7.22092 37.9518C7.22092 33.9035 8.01831 29.8948 9.56756 26.1547C11.1168 22.4146 13.3876 19.0162 16.2502 16.1537L14.5707 14.4746C11.4779 17.5505 9.026 21.2093 7.35678 25.2392C5.68755 29.2691 4.83419 33.59 4.84607 37.9519Z" fill="#BF926C"/>
<path d="M35.721 10.6875C34.7815 10.6875 33.8631 10.9661 33.082 11.488C32.3009 12.01 31.692 12.7518 31.3325 13.6198C30.973 14.4877 30.8789 15.4428 31.0622 16.3642C31.2455 17.2856 31.6979 18.132 32.3622 18.7963C33.0265 19.4606 33.8729 19.913 34.7943 20.0962C35.7157 20.2795 36.6707 20.1854 37.5387 19.8259C38.4066 19.4664 39.1485 18.8576 39.6704 18.0765C40.1924 17.2953 40.4709 16.377 40.4709 15.4375C40.4695 14.1782 39.9686 12.9708 39.0781 12.0803C38.1876 11.1899 36.9803 10.689 35.721 10.6875ZM35.721 17.8125C35.2512 17.8125 34.792 17.6732 34.4015 17.4122C34.0109 17.1513 33.7065 16.7803 33.5267 16.3464C33.347 15.9124 33.2999 15.4349 33.3916 14.9742C33.4832 14.5135 33.7094 14.0903 34.0416 13.7581C34.3737 13.426 34.7969 13.1998 35.2576 13.1081C35.7183 13.0165 36.1958 13.0635 36.6298 13.2433C37.0638 13.423 37.4347 13.7275 37.6957 14.118C37.9567 14.5086 38.096 14.9678 38.096 15.4375C38.0952 16.0672 37.8447 16.6708 37.3995 17.1161C36.9543 17.5613 36.3506 17.8118 35.721 17.8125Z" fill="#BF926C"/>
<path d="M54.721 48.6875C53.7815 48.6875 52.8631 48.9661 52.082 49.488C51.3009 50.01 50.692 50.7518 50.3325 51.6198C49.973 52.4877 49.8789 53.4428 50.0622 54.3642C50.2455 55.2856 50.6979 56.132 51.3622 56.7963C52.0265 57.4606 52.8729 57.913 53.7943 58.0962C54.7157 58.2795 55.6708 58.1855 56.5387 57.8259C57.4067 57.4664 58.1485 56.8576 58.6704 56.0765C59.1924 55.2953 59.471 54.377 59.471 53.4375C59.4695 52.1782 58.9686 50.9708 58.0781 50.0803C57.1876 49.1899 55.9803 48.689 54.721 48.6875ZM54.721 55.8125C54.2512 55.8125 53.792 55.6732 53.4015 55.4123C53.0109 55.1513 52.7065 54.7804 52.5267 54.3464C52.347 53.9124 52.2999 53.4349 52.3916 52.9742C52.4832 52.5135 52.7094 52.0903 53.0416 51.7581C53.3737 51.426 53.7969 51.1998 54.2576 51.1081C54.7183 51.0165 55.1959 51.0635 55.6298 51.2433C56.0638 51.423 56.4347 51.7275 56.6957 52.118C56.9567 52.5086 57.096 52.9678 57.096 53.4375C57.0952 54.0672 56.8448 54.6708 56.3995 55.1161C55.9543 55.5613 55.3506 55.8118 54.721 55.8125Z" fill="#BF926C"/>
<path d="M30.875 48.8062C30.0847 48.9676 29.3358 49.2891 28.6744 49.7509L25.5963 47.6989L24.2787 49.6749L27.0156 51.5001C26.6454 52.095 26.384 52.751 26.2438 53.4375H23.75V55.8125H26.2438C26.384 56.499 26.6454 57.155 27.0156 57.7499L24.2787 59.5745L25.5963 61.5505L28.6744 59.4985C29.3357 59.9605 30.0846 60.2822 30.875 60.4438V62.9375H33.25V60.4438C34.0403 60.2824 34.7892 59.9609 35.4506 59.4991L38.5287 61.5511L39.8463 59.5751L37.1094 57.7499C37.4796 57.155 37.741 56.499 37.8812 55.8125H40.375V53.4375H37.8812C37.741 52.751 37.4796 52.095 37.1094 51.5001L39.8463 49.6755L38.5287 47.6995L35.4506 49.7515C34.7893 49.2895 34.0404 48.9678 33.25 48.8062V46.3125H30.875V48.8062ZM35.625 54.625C35.625 55.3296 35.4161 56.0184 35.0246 56.6042C34.6332 57.1901 34.0768 57.6467 33.4258 57.9163C32.7748 58.186 32.0585 58.2565 31.3675 58.119C30.6764 57.9816 30.0417 57.6423 29.5434 57.1441C29.0452 56.6458 28.7059 56.0111 28.5685 55.32C28.431 54.629 28.5015 53.9127 28.7712 53.2617C29.0408 52.6107 29.4974 52.0543 30.0833 51.6629C30.6691 51.2714 31.3579 51.0625 32.0625 51.0625C33.007 51.0636 33.9125 51.4393 34.5804 52.1071C35.2482 52.775 35.6239 53.6805 35.625 54.625Z" fill="#BF926C"/>
<path d="M47.4999 23.75V26.2942C45.2124 26.4828 42.9958 27.1797 41.0119 28.334L39.1506 26.4728L37.4712 28.1522L39.0336 29.7147C38.583 30.0879 38.1602 30.4936 37.7685 30.9283C35.1599 33.7793 35.1778 36.6413 36.5193 37.8866C36.5436 37.9092 36.5689 37.9307 36.5951 37.9512C38.2097 39.2154 40.6501 38.8885 43.4759 38.51L43.6244 38.49L43.1212 39.9995L45.3744 40.7505L46.2287 38.1873C47.1294 38.1035 48.0346 38.0803 48.9384 38.1179C48.9779 38.1198 49.0177 38.1198 49.0572 38.1179C50.3735 38.074 51.6911 38.1397 52.9966 38.3141L53.8088 40.7505L56.0621 39.9995L55.6132 38.653C56.4565 38.7701 57.3061 38.8358 58.1573 38.8498C59.4309 38.8498 60.535 38.6295 61.4012 37.9513C61.4275 37.9308 61.4527 37.9092 61.4771 37.8866C62.8185 36.6413 62.8366 33.7795 60.2367 30.9381C59.8421 30.5 59.416 30.0913 58.962 29.7153L60.5252 28.1522L58.8457 26.4728L56.9851 28.3346C54.8195 27.0742 52.3792 26.3608 49.8757 26.2565V23.75H47.4999ZM58.476 32.5316C60.1054 34.3128 60.1468 35.7902 59.8861 36.119C59.0273 36.7175 56.9903 36.4445 54.8361 36.156C53.0571 35.9185 51.0425 35.6477 48.9981 35.743C46.9537 35.648 44.9391 35.9177 43.1602 36.156C41.0061 36.4447 38.9691 36.7176 38.1101 36.119C37.8497 35.7902 37.8914 34.3119 39.5294 32.5218C41.179 30.678 44.6386 28.5488 48.9791 28.6192H49.0171C49.0861 28.618 49.1545 28.6176 49.2233 28.6176C53.4626 28.6176 56.8441 30.7077 58.476 32.5316Z" fill="#BF926C"/>
<path d="M45.125 32.0625H47.5V34.4375H45.125V32.0625Z" fill="#BF926C"/>
<path d="M51.0625 30.875H53.4375V33.25H51.0625V30.875Z" fill="#BF926C"/>
<path d="M23.7501 19V21.4195C22.5487 21.5778 21.4365 22.1389 20.5953 23.0111C19.7541 23.8833 19.2335 25.015 19.1188 26.2213C18.2777 26.3618 17.4686 26.6524 16.7303 27.0793L13.8174 25.137L12.5 27.113L14.832 28.6676C14.0643 29.5751 13.5379 30.6615 13.3013 31.8263L15.6288 32.2987C15.8501 31.2271 16.4338 30.2644 17.2815 29.5726C18.1293 28.8808 19.1894 28.502 20.2836 28.5H20.3259C20.496 28.5 20.6642 28.4635 20.8189 28.3928C20.9737 28.3222 21.1115 28.2191 21.223 28.0906C21.3345 27.9621 21.417 27.8112 21.4651 27.648C21.5131 27.4848 21.5256 27.3132 21.5015 27.1448C21.4813 27.0036 21.4712 26.8611 21.4711 26.7185C21.4713 26.1685 21.6243 25.6295 21.9129 25.1614C22.2015 24.6933 22.6145 24.3145 23.1058 24.0674C23.5971 23.8203 24.1473 23.7145 24.6952 23.7618C25.2431 23.8091 25.7671 24.0076 26.2088 24.3353C26.6504 24.663 26.9924 25.1069 27.1965 25.6175C27.4006 26.1282 27.4589 26.6855 27.3649 27.2273C27.2708 27.7691 27.0281 28.2742 26.6638 28.6862C26.2995 29.0981 25.8279 29.4008 25.3017 29.5604C25.138 29.61 24.987 29.6944 24.859 29.8078C24.7309 29.9212 24.6289 30.0609 24.5598 30.2173C24.4908 30.3738 24.4563 30.5433 24.4588 30.7143C24.4613 30.8853 24.5007 31.0537 24.5744 31.2081C24.879 31.8454 25.0363 32.5432 25.0345 33.2496C25.0358 34.4275 24.5994 35.5639 23.81 36.4382C23.0206 37.3125 21.9345 37.8623 20.7626 37.9808C19.5906 38.0994 18.4164 37.7782 17.4679 37.0797C16.5194 36.3812 15.8642 35.3552 15.6297 34.2009L13.3022 34.6732C13.5393 35.8261 14.0578 36.9024 14.8114 37.8066C15.565 38.7107 16.5304 39.4145 17.6217 39.8555L16.7823 42.374L19.0354 43.1251L19.9548 40.3668C20.0637 40.3719 20.1733 40.3745 20.2838 40.3746C21.4786 40.3741 22.6541 40.0732 23.7022 39.4996C24.7503 38.926 25.6373 38.098 26.2817 37.0919L29.1251 38.9876L30.4425 37.0116L27.2235 34.8662C27.4934 33.6997 27.4673 32.4843 27.1475 31.3306C28.0325 30.8098 28.7489 30.0454 29.2111 29.1284C29.6733 28.2115 29.8618 27.1809 29.7539 26.1597C29.6461 25.1386 29.2466 24.17 28.6031 23.3698C27.9596 22.5696 27.0993 21.9716 26.1251 21.6472V19H23.7501Z" fill="#BF926C"/>
<path d="M19 32.0625H21.375V34.4375H19V32.0625Z" fill="#BF926C"/>
<path d="M60.5625 42.75H62.9375V45.125H60.5625V42.75Z" fill="#BF926C"/>
<path d="M15.4375 46.3125H17.8125V48.6875H15.4375V46.3125Z" fill="#BF926C"/>
<path d="M49.875 15.4375H52.25V17.8125H49.875V15.4375Z" fill="#BF926C"/>
<path d="M45.125 59.375H47.5V61.75H45.125V59.375Z" fill="#BF926C"/>
</g>
<defs>
<clipPath id="clip0_502_6039">
<rect width="76" height="76" fill="white"/>
</clipPath>
</defs>
</svg>
