<svg width="80" height="80" viewBox="0 0 80 80" fill="none" xmlns="http://www.w3.org/2000/svg">
<path d="M40.9114 24.0183L40.4642 23.8394C40.1662 23.7202 39.8337 23.7202 39.5356 23.8394L39.0887 24.0183C35.4039 25.4958 31.47 26.2534 27.5 26.2501C27.1685 26.2501 26.8505 26.3817 26.6161 26.6162C26.3817 26.8506 26.25 27.1685 26.25 27.5001V39.0938C26.2499 42.2277 27.1226 45.2998 28.7701 47.9657C30.4177 50.6316 32.7751 52.786 35.5781 54.1876L39.4408 56.1188C39.6144 56.2056 39.8058 56.2508 39.9998 56.2508C40.1939 56.2508 40.3853 56.2056 40.5589 56.1188L44.4219 54.1876C47.2249 52.786 49.5823 50.6316 51.2299 47.9657C52.8774 45.2998 53.7501 42.2277 53.75 39.0938V27.5001C53.75 27.1685 53.6183 26.8506 53.3839 26.6162C53.1495 26.3817 52.8315 26.2501 52.5 26.2501C48.53 26.2534 44.5962 25.4958 40.9114 24.0183ZM51.25 39.0938C51.2591 41.7653 50.5194 44.386 49.1149 46.6585C47.7104 48.9311 45.6973 50.7646 43.3038 51.9513L40 53.6026L36.6963 51.9507C34.3028 50.7641 32.2897 48.9306 30.8853 46.6581C29.4808 44.3857 28.7411 41.7652 28.75 39.0938V28.7272C32.6091 28.5871 36.415 27.7816 40 26.3463C43.585 27.7817 47.3909 28.5872 51.25 28.7272V39.0938Z" fill="#BF926C"/>
<path d="M37.7589 38.4911L35.9911 40.2589L39.1161 43.3839C39.2322 43.5 39.37 43.5921 39.5216 43.6549C39.6733 43.7177 39.8358 43.75 40 43.75C40.1642 43.75 40.3267 43.7177 40.4784 43.6549C40.63 43.5921 40.7678 43.5 40.8839 43.3839L48.3839 35.8839L46.6161 34.1161L40 40.7323L37.7589 38.4911Z" fill="#BF926C"/>
<path d="M31.25 40C31.25 42.3207 32.1719 44.5463 33.8128 46.1872C35.4538 47.8282 37.6794 48.75 40 48.75C42.3206 48.75 44.5462 47.8282 46.1872 46.1872C47.8281 44.5463 48.75 42.3207 48.75 40H46.25C46.2493 41.3749 45.795 42.7112 44.9577 43.8017C44.1203 44.8921 42.9465 45.6758 41.6184 46.0313C40.2902 46.3868 38.8819 46.2943 37.6117 45.7679C36.3416 45.2416 35.2805 44.3109 34.5931 43.1202C33.9057 41.9295 33.6303 40.5453 33.8096 39.1821C33.9889 37.819 34.613 36.5531 35.5849 35.5807C36.5569 34.6083 37.8226 33.9837 39.1856 33.8038C40.5487 33.6238 41.9331 33.8986 43.1241 34.5855L44.3759 32.4214C43.0456 31.6538 41.5366 31.2498 40.0007 31.25C38.4648 31.2502 36.9559 31.6546 35.6258 32.4226C34.2956 33.1906 33.191 34.2951 32.4229 35.6252C31.6549 36.9553 31.2503 38.4641 31.25 40Z" fill="#BF926C"/>
<path d="M62.5 60V61.25H61.7678L59.6875 59.1692C58.0582 57.54 55.9148 56.5255 53.6219 56.2985C51.329 56.0715 49.0282 56.6459 47.1111 57.9241L45.9236 58.7152L37.5925 57.958C36.254 57.8355 34.9144 58.1811 33.8021 58.9358C32.6898 59.6904 31.8737 60.8075 31.4928 62.0966L29.1453 61.3141C27.2229 60.6729 25.142 60.6879 23.229 61.3568C21.3161 62.0257 19.6792 63.3106 18.5752 65.01C17.082 65.288 15.7069 66.0082 14.628 67.0772C13.5491 68.1461 12.8161 69.5145 12.5242 71.005C12.4919 71.1669 12.4919 71.3336 12.5244 71.4955C12.5568 71.6573 12.621 71.8112 12.7132 71.9481C12.8054 72.0851 12.9239 72.2024 13.0617 72.2933C13.1995 72.3842 13.3539 72.4469 13.5161 72.4778L39.7661 77.4778C39.9441 77.5117 40.1274 77.5063 40.3031 77.4622L55.1539 73.75H62.5V75C62.5 75.3315 62.6317 75.6495 62.8661 75.8839C63.1005 76.1183 63.4185 76.25 63.75 76.25H77.5V73.75H65V61.25H77.5V58.75H63.75C63.4185 58.75 63.1005 58.8817 62.8661 59.1161C62.6317 59.3505 62.5 59.6685 62.5 60ZM28.3547 63.6859L32.1047 64.9359C32.1715 64.9584 32.2402 64.9752 32.3098 64.9861L37.9245 65.85L33.645 67.4548L21.7669 65.0798C22.6419 64.2828 23.7136 63.7334 24.8715 63.4884C26.0295 63.2434 27.2318 63.3116 28.3547 63.6859ZM55 71.25C54.8978 71.25 54.796 71.2625 54.6969 71.2873L39.9638 74.9706L15.375 70.2872C15.7517 69.4942 16.3269 68.812 17.0449 68.3068C17.7628 67.8016 18.5992 67.4905 19.4728 67.4037C19.9839 67.3491 20.5004 67.3734 21.0041 67.4758L33.5041 69.9758C33.7328 70.0217 33.9698 70.0025 34.1881 69.9203L42.972 66.6259L48.5592 67.4853L48.9392 65.0144L33.9163 62.7031C34.1538 61.9939 34.6236 61.3855 35.2496 60.9761C35.8757 60.5668 36.6214 60.3805 37.3664 60.4473L46.1369 61.2442C46.4213 61.2703 46.706 61.198 46.9434 61.0394L48.4973 60.0034C49.9336 59.046 51.6573 58.6157 53.3751 58.7858C55.0928 58.9559 56.6986 59.7158 57.9192 60.9364L60.3659 63.3833C60.482 63.4995 60.6198 63.5917 60.7715 63.6546C60.9232 63.7175 61.0858 63.7499 61.25 63.75H62.5V71.25H55Z" fill="#BF926C"/>
<path d="M17.5 20V18.75H18.2322L20.3125 20.8308C21.9418 22.46 24.0852 23.4745 26.3781 23.7015C28.671 23.9285 30.9718 23.3541 32.8889 22.0759L34.0764 21.2849L42.4075 22.042C43.746 22.1645 45.0856 21.8189 46.1979 21.0642C47.3102 20.3096 48.1263 19.1925 48.5072 17.9034L50.8548 18.6859C52.7777 19.328 54.8594 19.3134 56.7731 18.6443C58.6867 17.9753 60.324 16.6897 61.428 14.9894C62.9205 14.7108 64.2949 13.9905 65.3732 12.9217C66.4516 11.8529 67.1841 10.485 67.4759 8.99501C67.5083 8.83312 67.5082 8.66642 67.4758 8.50454C67.4434 8.34266 67.3792 8.18881 67.287 8.05188C67.1947 7.91494 67.0763 7.79763 66.9385 7.70672C66.8007 7.6158 66.6462 7.55309 66.4841 7.5222L40.2341 2.5222C40.056 2.48836 39.8728 2.49369 39.697 2.53782L24.8461 6.25001H17.5V5.00001C17.5 4.66849 17.3683 4.35055 17.1339 4.11613C16.8995 3.88171 16.5815 3.75001 16.25 3.75001H2.5V6.25001H15V18.75H2.5V21.25H16.25C16.5815 21.25 16.8995 21.1183 17.1339 20.8839C17.3683 20.6495 17.5 20.3315 17.5 20ZM51.6453 16.3141L47.8953 15.0641C47.8285 15.0416 47.7598 15.0248 47.6902 15.0139L42.0755 14.15L46.355 12.5452L58.2333 14.9202C57.3583 15.7173 56.2866 16.2666 55.1286 16.5117C53.9706 16.7567 52.7682 16.6885 51.6453 16.3141ZM25 8.75001C25.1022 8.75004 25.204 8.73749 25.3031 8.71267L40.0362 5.02939L64.625 9.71282C64.2483 10.5058 63.6731 11.188 62.9552 11.6932C62.2372 12.1984 61.4008 12.5095 60.5272 12.5963C60.0161 12.6509 59.4996 12.6266 58.9959 12.5242L46.4959 10.0242C46.2672 9.97868 46.0303 9.9979 45.8119 10.0797L37.0272 13.3741L31.44 12.5147L31.06 14.9856L46.0838 17.2969C45.8462 18.0061 45.3764 18.6146 44.7504 19.0239C44.1243 19.4332 43.3786 19.6195 42.6336 19.5527L33.8631 18.7558C33.5787 18.7297 33.294 18.802 33.0566 18.9606L31.5027 19.9966C30.0664 20.954 28.3427 21.3843 26.625 21.2142C24.9072 21.0441 23.3014 20.2842 22.0808 19.0636L19.6341 16.6167C19.518 16.5005 19.3802 16.4083 19.2285 16.3454C19.0768 16.2825 18.9142 16.2501 18.75 16.25H17.5V8.75001H25Z" fill="#BF926C"/>
<path d="M67.5 68.75H70V71.25H67.5V68.75Z" fill="#BF926C"/>
<path d="M10 8.75H12.5V11.25H10V8.75Z" fill="#BF926C"/>
<path d="M22.5036 57.8572C17.9859 53.4305 15.3139 47.4561 15.026 41.1377C14.7381 34.8192 16.8557 28.6265 20.9521 23.8073L19.048 22.1875C14.5416 27.4886 12.2119 34.3007 12.5285 41.2511C12.8451 48.2015 15.7843 54.7737 20.7539 59.6431L22.5036 57.8572Z" fill="#BF926C"/>
<path d="M60.952 57.8125C65.5983 52.3467 67.9251 45.2818 67.4359 38.1247C66.9467 30.9677 63.6804 24.285 58.3336 19.5023L56.6664 21.3651C61.5272 25.7129 64.4968 31.7879 64.9417 38.2943C65.3866 44.8006 63.2716 51.2233 59.0479 56.1923L60.952 57.8125Z" fill="#BF926C"/>
<path d="M10 57.5H7.5V60H5V62.5H7.5V65H10V62.5H12.5V60H10V57.5Z" fill="#BF926C"/>
<path d="M5 35H7.5V32.5H10V30H7.5V27.5H5V30H2.5V32.5H5V35Z" fill="#BF926C"/>
<path d="M6.25 45H8.75V47.5H6.25V45Z" fill="#BF926C"/>
<path d="M67.5 17.5V20H70V22.5H72.5V20H75V17.5H72.5V15H70V17.5H67.5Z" fill="#BF926C"/>
<path d="M75 47.5V45H72.5V47.5H70V50H72.5V52.5H75V50H77.5V47.5H75Z" fill="#BF926C"/>
<path d="M71.25 32.5H73.75V35H71.25V32.5Z" fill="#BF926C"/>
</svg>
