<svg width="41" height="41" viewBox="0 0 41 41" fill="none" xmlns="http://www.w3.org/2000/svg">
<path d="M23.1468 10.6782H16.8707C16.2236 10.6782 15.6989 11.2029 15.6989 11.8501V20.7199H14.3604C13.7132 20.7199 13.1885 21.2446 13.1885 21.8917C13.1885 22.5389 13.7132 23.0636 14.3604 23.0636H15.6989V25.7407H14.3604C13.7132 25.7407 13.1885 26.2654 13.1885 26.9126C13.1885 27.5598 13.7132 28.0845 14.3604 28.0845H15.6989V30.6782C15.6989 31.3254 16.2236 31.8501 16.8707 31.8501C17.5179 31.8501 18.0426 31.3254 18.0426 30.6782V28.0845H23.1468C23.794 28.0845 24.3187 27.5598 24.3187 26.9126C24.3187 26.2654 23.794 25.7407 23.1468 25.7407H18.0426V23.0636H23.1468C26.5615 23.0636 29.3396 20.2856 29.3396 16.8709C29.3395 13.3718 26.4893 10.6782 23.1468 10.6782V10.6782ZM23.1468 20.7199H18.0426V13.022H23.1468C25.2564 13.022 26.9958 14.7235 26.9958 16.871C26.9957 18.9933 25.2692 20.7199 23.1468 20.7199Z" fill="black"/>
<path d="M20.6365 0.636475C9.60843 0.636475 0.636475 9.60843 0.636475 20.6365C0.636475 31.6645 9.60843 40.6365 20.6365 40.6365C31.6645 40.6365 40.6365 31.6645 40.6365 20.6365C40.6365 9.60843 31.6645 0.636475 20.6365 0.636475ZM20.6365 38.2927C10.9008 38.2927 2.98022 30.3722 2.98022 20.6365C2.98022 10.9008 10.9008 2.98022 20.6365 2.98022C30.3722 2.98022 38.2927 10.9008 38.2927 20.6365C38.2927 30.3722 30.3722 38.2927 20.6365 38.2927Z" fill="black"/>
</svg>
