<svg width="76" height="76" viewBox="0 0 76 76" fill="none" xmlns="http://www.w3.org/2000/svg">
<g clip-path="url(#clip0_502_5980)">
<path d="M44.5659 3.14001L44.1008 5.63012C51.2254 6.98498 57.707 10.6442 62.5479 16.0442L64.4356 14.3544C59.221 8.53887 52.2395 4.59842 44.5659 3.14001Z" fill="#BF926C"/>
<path d="M31.4341 3.14001C23.8429 4.58354 16.9269 8.45621 11.729 14.1739L13.6043 15.876C18.4305 10.5676 24.8514 6.97152 31.8992 5.63012L31.4341 3.14001Z" fill="#BF926C"/>
<path d="M6.93955 27.0225L4.5522 26.1776C1.86053 33.8294 1.86053 42.1707 4.5522 49.8225L6.93955 48.9776C4.44247 41.8722 4.44247 34.1278 6.93955 27.0225Z" fill="#BF926C"/>
<path d="M14.8253 61.3987L13.0415 63.1985C18.0637 68.192 24.4725 71.5585 31.4341 72.86L31.8992 70.3698C25.4365 69.1613 19.4869 66.0353 14.8253 61.3987Z" fill="#BF926C"/>
<path d="M61.3999 61.1754C57.0011 65.6274 51.4219 68.7298 45.3191 70.1176L45.8807 72.5879C52.4531 71.0939 58.4615 67.7527 63.1984 62.9581L61.3999 61.1754Z" fill="#BF926C"/>
<path d="M72.263 28.8055L69.8163 29.4612C70.5595 32.2466 70.9351 35.1172 70.9333 38.0001C70.9379 41.7392 70.3046 45.4516 69.0605 48.9777L71.4479 49.8226C73.8259 43.0579 74.11 35.7337 72.263 28.8055Z" fill="#BF926C"/>
<path d="M70.9341 17.7333C70.9339 17.7333 70.9336 17.7333 70.9334 17.7333H65.8668C65.1674 17.7331 64.6003 18.3 64.6001 18.9993C64.6001 18.9995 64.6001 18.9998 64.6001 18.9999V24.0666C64.5999 24.766 65.1668 25.3331 65.8661 25.3333C65.8663 25.3333 65.8666 25.3333 65.8668 25.3333H70.9334C71.6328 25.3334 72.1999 24.7666 72.2001 24.0672C72.2001 24.0671 72.2001 24.0668 72.2001 24.0666V18.9999C72.2003 18.3006 71.6334 17.7334 70.9341 17.7333ZM69.6668 22.7999H67.1334V20.2666H69.6668V22.7999Z" fill="#BF926C"/>
<path d="M40.5339 3.31623e-08C40.5338 3.31623e-08 40.5334 3.31623e-08 40.5333 3.31623e-08H35.4666C34.7673 -0.0001583 34.2001 0.566675 34.2 1.26603C34.2 1.26619 34.2 1.26651 34.2 1.26667V6.33333C34.1998 7.03269 34.7666 7.59984 35.466 7.6C35.4661 7.6 35.4665 7.6 35.4666 7.6H40.5333C41.2326 7.60016 41.7998 7.03333 41.7999 6.33397C41.7999 6.33381 41.7999 6.33349 41.7999 6.33333V1.26667C41.8001 0.567308 41.2333 0.000158366 40.5339 3.31623e-08ZM39.2666 5.06667H36.7333V2.53333H39.2666V5.06667Z" fill="#BF926C"/>
<path d="M11.4006 16.4667C11.4005 16.4667 11.4001 16.4667 11.4 16.4667H6.33332C5.63396 16.4665 5.06681 17.0334 5.06665 17.7327C5.06665 17.7329 5.06665 17.7332 5.06665 17.7333V22.8C5.06649 23.4994 5.63333 24.0665 6.33268 24.0667C6.33284 24.0667 6.33316 24.0667 6.33332 24.0667H11.4C12.0993 24.0668 12.6665 23.5 12.6667 22.8006C12.6667 22.8005 12.6667 22.8002 12.6667 22.8V17.7333C12.6668 17.034 12.1 16.4668 11.4006 16.4667ZM10.1333 21.5333H7.59998V19H10.1333V21.5333Z" fill="#BF926C"/>
<path d="M11.4006 51.9333C11.4005 51.9333 11.4001 51.9333 11.4 51.9333H6.33332C5.63396 51.9332 5.06681 52.5 5.06665 53.1994C5.06665 53.1995 5.06665 53.1999 5.06665 53.2V58.2667C5.06649 58.966 5.63333 59.5332 6.33268 59.5334C6.33284 59.5334 6.33316 59.5334 6.33332 59.5334H11.4C12.0993 59.5335 12.6665 58.9667 12.6667 58.2673C12.6667 58.2672 12.6667 58.2668 12.6667 58.2667V53.2C12.6668 52.5007 12.1 51.9335 11.4006 51.9333ZM10.1333 57H7.59998V54.4667H10.1333V57Z" fill="#BF926C"/>
<path d="M40.5339 68.4C40.5338 68.4 40.5334 68.4 40.5333 68.4H35.4666C34.7673 68.3999 34.2001 68.9667 34.2 69.6661C34.2 69.6662 34.2 69.6665 34.2 69.6667V74.7334C34.1998 75.4327 34.7666 75.9999 35.466 76C35.4661 76 35.4665 76 35.4666 76H40.5333C41.2326 76.0002 41.7998 75.4333 41.7999 74.734C41.7999 74.7338 41.7999 74.7335 41.7999 74.7334V69.6667C41.8001 68.9673 41.2333 68.4002 40.5339 68.4ZM39.2666 73.4667H36.7333V70.9334H39.2666V73.4667Z" fill="#BF926C"/>
<path d="M69.6672 51.9333C69.6671 51.9333 69.6667 51.9333 69.6666 51.9333H64.5999C63.9006 51.9332 63.3334 52.5 63.3333 53.1994C63.3333 53.1995 63.3333 53.1999 63.3333 53.2V58.2667C63.3331 58.966 63.8999 59.5332 64.5993 59.5334C64.5994 59.5334 64.5998 59.5334 64.5999 59.5334H69.6666C70.3659 59.5335 70.9331 58.9667 70.9333 58.2673C70.9333 58.2672 70.9333 58.2668 70.9333 58.2667V53.2C70.9334 52.5007 70.3666 51.9335 69.6672 51.9333ZM68.3999 57H65.8666V54.4667H68.3999V57Z" fill="#BF926C"/>
<path d="M38.0001 12.6666C24.0088 12.6666 12.6667 24.0087 12.6667 38C12.6667 51.9912 24.0088 63.3333 38.0001 63.3333C51.9847 63.3175 63.3176 51.9846 63.3334 38C63.3334 24.0087 51.9914 12.6666 38.0001 12.6666ZM30.5955 16.4586C29.116 18.1731 27.9177 20.1113 27.0452 22.2011C25.4037 22.0164 23.8099 21.7923 22.2831 21.5244C24.657 19.2573 27.4924 17.5294 30.5955 16.4586ZM20.2546 23.7173C22.1159 24.0888 24.0728 24.4029 26.1156 24.6482C24.8522 28.5554 24.1735 32.6277 24.1009 36.7333H15.2644C15.5194 31.9782 17.2654 27.4242 20.2546 23.7173ZM15.2642 39.2666H24.1008C24.1733 43.3722 24.8522 47.4447 26.1154 51.3517C24.0726 51.597 22.1158 51.9111 20.2544 52.2826C17.2654 48.5757 15.5194 44.0217 15.2642 39.2666ZM22.2831 54.4757C23.8099 54.2078 25.4037 53.9837 27.0452 53.7989C27.9177 55.8886 29.116 57.8269 30.5955 59.5415C27.4924 58.4706 24.657 56.7427 22.2831 54.4757ZM36.7334 60.6418C34.0221 60.0099 31.5713 57.3801 29.7558 53.5367C32.0178 53.3513 34.353 53.243 36.7334 53.2145V60.6418ZM36.7334 50.6812C34.0015 50.7132 31.3216 50.8454 28.7411 51.0789C27.4302 47.2747 26.7191 43.2896 26.6333 39.2666H36.7334V50.6812ZM36.7334 36.7333H26.6333C26.7191 32.7104 27.4302 28.7253 28.7411 24.921C31.3216 25.1547 34.0015 25.2867 36.7334 25.3187V36.7333ZM36.7334 22.7856C34.353 22.7571 32.0178 22.6487 29.7558 22.4633C31.5713 18.62 34.0221 15.9902 36.7334 15.3581V22.7856ZM60.736 36.7333H51.8994C51.8269 32.6277 51.1479 28.5552 49.8847 24.6482C51.9276 24.4029 53.8844 24.0888 55.7458 23.7173C58.7348 27.4242 60.4807 31.9782 60.736 36.7333ZM53.717 21.5243C52.1902 21.7922 50.5964 22.0162 48.955 22.201C48.0824 20.1113 46.8842 18.173 45.4047 16.4584C48.5077 17.5294 51.3432 19.2572 53.717 21.5243ZM39.2667 15.3581C41.978 15.99 44.4289 18.6198 46.2443 22.4633C43.9824 22.6487 41.6471 22.7571 39.2667 22.7856V15.3581ZM39.2667 25.3187C41.9986 25.2867 44.6786 25.1545 47.2591 24.921C48.5699 28.7253 49.281 32.7104 49.3668 36.7333H39.2667V25.3187ZM39.2667 39.2666H49.3668C49.281 43.2896 48.5699 47.2747 47.2591 51.0789C44.6786 50.8452 41.9986 50.7132 39.2667 50.6812V39.2666ZM39.2667 60.6418V53.2144C41.6471 53.2429 43.9824 53.3512 46.2443 53.5366C44.4289 57.3801 41.978 60.0099 39.2667 60.6418ZM45.4047 59.5414C46.8842 57.8268 48.0824 55.8886 48.955 53.7988C50.5964 53.9836 52.1902 54.2076 53.717 54.4755C51.3432 56.7427 48.5077 58.4706 45.4047 59.5414ZM55.7456 52.2826C53.8842 51.9111 51.9274 51.597 49.8846 51.3517C51.1479 47.4445 51.8267 43.3722 51.8992 39.2666H60.7358C60.4807 44.0217 58.7348 48.5757 55.7456 52.2826Z" fill="#BF926C"/>
</g>
<defs>
<clipPath id="clip0_502_5980">
<rect width="76" height="76" fill="white"/>
</clipPath>
</defs>
</svg>
