<svg width="35" height="35" viewBox="0 0 35 35" fill="none" xmlns="http://www.w3.org/2000/svg">
<path d="M2.86902 16.6398V18.3611C2.86902 18.678 3.12593 18.9349 3.44279 18.9349C3.75966 18.9349 4.01657 18.678 4.01657 18.3611V16.6398C4.01657 16.3229 3.75966 16.066 3.44279 16.066C3.12593 16.066 2.86902 16.3229 2.86902 16.6398Z" fill="white"/>
<path d="M3.44279 20.0819C3.12593 20.0819 2.86902 20.3388 2.86902 20.6557V22.377C2.86902 22.6939 3.12593 22.9508 3.44279 22.9508C3.75966 22.9508 4.01657 22.6939 4.01657 22.377V20.6557C4.01657 20.3388 3.75966 20.0819 3.44279 20.0819Z" fill="white"/>
<path d="M2.29511 18.9343H0.573777C0.256909 18.9343 0 19.1912 0 19.5081C0 19.825 0.256909 20.0819 0.573777 20.0819H2.29511C2.61198 20.0819 2.86888 19.825 2.86888 19.5081C2.86888 19.1912 2.61198 18.9343 2.29511 18.9343Z" fill="white"/>
<path d="M6.31171 18.9343H4.59038C4.27351 18.9343 4.0166 19.1912 4.0166 19.5081C4.0166 19.825 4.27351 20.0819 4.59038 20.0819H6.31171C6.62858 20.0819 6.88549 19.825 6.88549 19.5081C6.88549 19.1912 6.62858 18.9343 6.31171 18.9343Z" fill="white"/>
<path d="M30.9843 2.86888C31.3012 2.86888 31.5581 2.61198 31.5581 2.29511V0.573777C31.5581 0.256909 31.3012 0 30.9843 0C30.6674 0 30.4105 0.256909 30.4105 0.573777V2.29511C30.4105 2.61198 30.6674 2.86888 30.9843 2.86888Z" fill="white"/>
<path d="M30.9843 4.01654C30.6674 4.01654 30.4105 4.27345 30.4105 4.59032V6.31165C30.4105 6.62852 30.6674 6.88543 30.9843 6.88543C31.3012 6.88543 31.5581 6.62852 31.5581 6.31165V4.59032C31.5581 4.27345 31.3012 4.01654 30.9843 4.01654Z" fill="white"/>
<path d="M28.1155 4.01657H29.8369C30.1537 4.01657 30.4106 3.75966 30.4106 3.44279C30.4106 3.12593 30.1537 2.86902 29.8369 2.86902H28.1155C27.7987 2.86902 27.5417 3.12593 27.5417 3.44279C27.5417 3.75966 27.7987 4.01657 28.1155 4.01657Z" fill="white"/>
<path d="M33.8533 2.86902H32.132C31.8151 2.86902 31.5582 3.12593 31.5582 3.44279C31.5582 3.75966 31.8151 4.01657 32.132 4.01657H33.8533C34.1702 4.01657 34.4271 3.75966 34.4271 3.44279C34.4271 3.12593 34.1702 2.86902 33.8533 2.86902Z" fill="white"/>
<path d="M4.01665 11.4757C4.33353 11.4757 4.59042 11.2188 4.59042 10.9019C4.59042 10.585 4.33353 10.3281 4.01665 10.3281C3.69976 10.3281 3.44287 10.585 3.44287 10.9019C3.44287 11.2188 3.69976 11.4757 4.01665 11.4757Z" fill="white"/>
<path d="M32.7057 12.0494C33.0226 12.0494 33.2795 11.7925 33.2795 11.4756C33.2795 11.1587 33.0226 10.9019 32.7057 10.9019C32.3888 10.9019 32.132 11.1587 32.132 11.4756C32.132 11.7925 32.3888 12.0494 32.7057 12.0494Z" fill="white"/>
<path d="M3.72977 4.59022C4.83716 4.59022 5.73799 3.68939 5.73799 2.58201C5.73799 1.47462 4.83716 0.573792 3.72977 0.573792C2.62239 0.573792 1.72156 1.47462 1.72156 2.58201C1.72156 3.68939 2.62239 4.59022 3.72977 4.59022ZM3.72977 1.72134C4.20443 1.72134 4.59044 2.10735 4.59044 2.58201C4.59044 3.05666 4.20443 3.44267 3.72977 3.44267C3.25512 3.44267 2.86911 3.05666 2.86911 2.58201C2.86911 2.10735 3.25512 1.72134 3.72977 1.72134Z" fill="white"/>
<path d="M31.2714 16.066C30.164 16.066 29.2632 16.9669 29.2632 18.0742C29.2632 19.1816 30.164 20.0825 31.2714 20.0825C32.3788 20.0825 33.2796 19.1816 33.2796 18.0742C33.2796 16.9669 32.3788 16.066 31.2714 16.066ZM31.2714 18.9349C30.7967 18.9349 30.4107 18.5489 30.4107 18.0742C30.4107 17.5996 30.7967 17.2136 31.2714 17.2136C31.746 17.2136 32.1321 17.5996 32.1321 18.0742C32.1321 18.5489 31.746 18.9349 31.2714 18.9349Z" fill="white"/>
<path d="M26.7737 22.152L21.8037 21.3057V19.1183C23.6433 18.0485 25.0306 16.2979 25.6293 14.2269C25.9876 14.2338 26.3378 14.1334 26.6737 13.9242C27.1952 13.5995 27.5479 13.07 27.6172 12.5079C27.6865 11.9448 27.5123 11.38 27.1392 10.9581C26.8951 10.6821 26.5809 10.483 26.2352 10.3783C26.2354 10.3634 26.2355 10.3486 26.2357 10.334C26.2387 10.0646 26.2421 9.73709 26.2392 9.45149V8.28931C26.2392 5.64621 25.0445 3.50315 22.8753 2.25491C20.2901 0.767248 16.6859 0.773559 14.1105 2.27025C12.2196 3.36918 11.1831 5.10442 11.1918 7.15639C11.1931 7.44858 11.1961 7.74981 11.199 8.04402C11.204 8.54019 11.2086 9.00882 11.2043 9.37977C11.204 9.3868 11.2022 9.3934 11.2022 9.40042C11.1999 9.85945 11.1956 10.1658 11.1908 10.3695C10.8628 10.4632 10.5637 10.6421 10.3194 10.8953C9.94545 11.2827 9.75007 11.7931 9.76944 12.3321C9.79081 12.9336 10.1316 13.5141 10.6813 13.8852C11.0253 14.1173 11.3784 14.2333 11.7437 14.2285C12.3157 16.3064 13.6727 18.066 15.4919 19.1581V21.1654L14.3429 21.3809C14.3096 21.3812 14.276 21.3833 14.2426 21.3896L11.7619 21.8557C11.7323 21.8613 11.7042 21.871 11.6762 21.8811L10.4498 22.111C8.38463 22.4983 6.8855 24.3047 6.8855 26.4061V34.4262C6.8855 34.7431 7.14241 35 7.45927 35H29.8365C30.1534 35 30.4103 34.7431 30.4103 34.4262V26.4602C30.4103 24.3228 28.8809 22.5109 26.7737 22.152ZM14.6873 3.26231C16.8891 1.98251 20.0921 1.97705 22.303 3.2494C23.5752 3.98154 25.0917 5.45012 25.0917 8.28916V9.1722C23.4223 10.3932 21.5369 10.8499 19.7536 10.4585C18.1793 10.1129 16.8744 9.13376 16.1732 7.7719C16.0893 7.60881 15.9324 7.49563 15.7511 7.46752C15.7216 7.46293 15.6922 7.46077 15.6631 7.46077C15.5116 7.46077 15.365 7.52073 15.2566 7.62975C14.5454 8.34396 13.5085 8.77486 12.3534 8.84903C12.3524 8.59341 12.3497 8.31713 12.3468 8.0324C12.3438 7.74035 12.341 7.44141 12.3397 7.15137C12.3306 5.06999 13.6113 3.88758 14.6873 3.26231ZM12.7392 13.4603C12.7062 13.2992 12.6056 13.1601 12.4632 13.0782C12.3206 12.9961 12.1497 12.9794 11.994 13.0317C11.7777 13.1046 11.5899 13.1136 11.3234 12.9339C11.0805 12.7699 10.9246 12.5238 10.9164 12.2913C10.9084 12.0662 10.9897 11.8535 11.1454 11.6921C11.3013 11.5306 11.5106 11.4416 11.7351 11.4416C12.3127 11.4416 12.3258 10.9083 12.3372 10.4377C12.3402 10.3149 12.3428 10.1667 12.3448 9.99801C13.5393 9.93547 14.6478 9.55663 15.5178 8.91444C16.4231 10.2579 17.8428 11.214 19.5073 11.5793C20.0075 11.6892 20.5134 11.7434 21.0199 11.7434C22.4038 11.7434 23.793 11.3376 25.0857 10.5539C25.0828 11.0386 25.1014 11.114 25.2567 11.2711C25.3644 11.3801 25.5118 11.4416 25.6652 11.4416C25.8999 11.4416 26.1236 11.5426 26.2793 11.7185C26.4369 11.8968 26.5075 12.1273 26.4779 12.3676C26.4507 12.589 26.2969 12.8069 26.0668 12.9502C25.8372 13.0931 25.6424 13.1158 25.3949 13.0284C25.2396 12.9738 25.0685 12.9881 24.9246 13.0683C24.7807 13.1485 24.6783 13.2865 24.6433 13.4473C24.1015 15.9329 22.2643 17.9632 19.8485 18.7462L19.6012 18.8264C18.9223 19.0465 18.1996 19.0554 17.5662 18.8515C15.1084 18.0601 13.2587 15.9944 12.7392 13.4603ZM17.215 19.9438C17.6388 20.0803 18.0797 20.1484 18.5267 20.1484C19.0012 20.1484 19.4822 20.0715 19.9555 19.9182L20.2028 19.838C20.3562 19.7884 20.5069 19.7334 20.6561 19.6752V21.6254C19.4618 22.4981 17.8402 22.5042 16.6397 21.6414V19.7326C16.8283 19.8089 17.0195 19.8809 17.215 19.9438ZM19.882 33.848L21.955 29.8593C22.2212 30.2654 22.3774 30.7498 22.3774 31.2705C22.3774 32.665 21.2655 33.802 19.882 33.848ZM18.5864 33.8525H17.0108L19.6948 28.6885H19.7955C20.2667 28.6885 20.7075 28.8174 21.0882 29.0389L18.5864 33.8525ZM13.7708 28.6885H15.4921V33.8525H13.7708V28.6885ZM18.4013 28.6885L16.6397 32.0781V28.6885H18.4013ZM16.0659 27.5409H13.74L12.5748 22.88L14.1106 22.592L17.8222 27.5409H16.0659ZM8.03305 26.4061C8.03305 24.8565 9.13857 23.5243 10.6617 23.2388L11.4449 23.0919L12.6554 27.9335C12.636 27.9908 12.6233 28.051 12.6233 28.1147V29.2623H11.4757V26.4693C11.4757 26.1524 11.2188 25.8955 10.9019 25.8955C10.5851 25.8955 10.3282 26.1524 10.3282 26.4693V29.836C10.3282 30.1529 10.5851 30.4098 10.9019 30.4098H12.6233V33.8525H8.03305V26.4061ZM29.2628 33.8525H26.3939V27.5409C26.3939 27.2241 26.137 26.9671 25.8201 26.9671C25.5032 26.9671 25.2463 27.2241 25.2463 27.5409V33.8525H22.4829C23.1275 33.1817 23.525 32.272 23.525 31.2705C23.525 29.2141 21.8519 27.5409 19.7955 27.5409H19.2567L15.3681 22.3561L15.6181 22.3092L15.8516 22.4887C17.4991 23.7539 19.7962 23.7487 21.4379 22.4765L21.5108 22.42L26.5811 23.2834C28.135 23.548 29.2628 24.8841 29.2628 26.4602V33.8525Z" fill="white"/>
</svg>
