<svg width="30" height="30" viewBox="0 0 30 30" fill="none" xmlns="http://www.w3.org/2000/svg">
<path d="M14.3609 11.7915H10.0205C9.57838 11.7915 9.21667 12.1532 9.21667 12.5953C9.21667 13.0374 9.57838 13.3991 10.0205 13.3991H14.3609C14.803 13.3991 15.1647 13.0374 15.1647 12.5953C15.1647 12.1532 14.803 11.7915 14.3609 11.7915Z" fill="white"/>
<path d="M15.0684 0C15.0604 0.00803789 15.0443 0.00803789 15.0202 0.00803789C6.88582 0.00803789 0.27063 6.62322 0.27063 14.7576C0.27063 18.0772 1.40397 21.3004 3.47775 23.8966L1.33163 28.8801C1.1548 29.2901 1.34771 29.7643 1.7496 29.9331C1.89429 29.9974 2.05504 30.0135 2.20776 29.9894L10.0769 28.6069C11.6523 29.1775 13.3081 29.4669 14.98 29.4589C23.1143 29.4589 29.7295 22.8437 29.7295 14.7093C29.7456 6.59911 23.1786 0.00803789 15.0684 0ZM14.988 27.8593C13.4367 27.8593 11.9015 27.578 10.4466 27.0314C10.31 26.9752 10.1653 26.9671 10.0206 26.9912L3.39737 28.1487L5.14963 24.0735C5.2702 23.7922 5.22197 23.4626 5.02103 23.2295C4.07255 22.1283 3.31699 20.8744 2.78649 19.516C2.19169 17.9968 1.88625 16.3812 1.88625 14.7495C1.88625 7.49935 7.78606 1.60758 15.0282 1.60758C22.2543 1.5915 28.1219 7.43505 28.13 14.6611C28.13 14.6772 28.13 14.6933 28.13 14.7093C28.13 21.9676 22.2302 27.8593 14.988 27.8593Z" fill="white"/>
<path d="M19.9875 15.8105H10.0205C9.57838 15.8105 9.21667 16.1723 9.21667 16.6143C9.21667 17.0564 9.57838 17.4181 10.0205 17.4181H19.9875C20.4296 17.4181 20.7913 17.0564 20.7913 16.6143C20.7913 16.1723 20.4296 15.8105 19.9875 15.8105Z" fill="white"/>
</svg>
