<svg width="76" height="76" viewBox="0 0 76 76" fill="none" xmlns="http://www.w3.org/2000/svg">
<g clip-path="url(#clip0_502_5957)">
<path d="M16.5588 61.3905C16.1753 61.0277 15.7881 60.6624 15.4009 60.2935C21.1685 54.6355 27.042 47.6844 27.042 38.2557C27.042 28.8269 21.1685 21.8759 15.4009 16.2166C15.7881 15.8477 16.1753 15.4825 16.5588 15.1196C21.5314 10.4223 25.8245 6.36537 25.8245 1.72891V0.511353H23.3893V1.72891C23.3893 2.53128 23.1824 3.34218 22.8244 4.16403H4.47336C4.1154 3.34218 3.90841 2.53128 3.90841 1.72891V0.511353H1.4733V1.72891C1.4733 6.36537 5.76641 10.4223 10.7389 15.1208C11.1224 15.4837 11.5096 15.8489 11.8968 16.2179C6.12924 21.8759 0.255737 28.8269 0.255737 38.2557C0.255737 47.6844 6.12924 54.6355 11.8968 60.2947C11.5096 60.6636 11.1224 61.0289 10.7389 61.3917C5.76641 66.0891 1.4733 70.146 1.4733 74.7824V76H3.90841V74.7824C3.90841 73.9801 4.1154 73.1692 4.47336 72.3473H22.8256C23.1824 73.1692 23.3893 73.9801 23.3893 74.7824V76H25.8245V74.7824C25.8245 70.146 21.5314 66.0891 16.5588 61.3905ZM5.92956 6.59915H21.3682C20.774 7.39421 20.0691 8.2051 19.2886 9.03426H8.00915C7.22869 8.2051 6.52251 7.39421 5.92956 6.59915ZM10.4345 11.4694H16.862C16.2228 12.0855 15.5629 12.7101 14.8859 13.3505C14.4793 13.7353 14.0653 14.1261 13.6489 14.5218C13.2313 14.1261 12.8185 13.7353 12.4118 13.3505C11.7349 12.7101 11.0737 12.0855 10.4345 11.4694ZM13.6489 17.9066C15.1221 19.3482 16.5783 20.8446 17.9237 22.4274H9.37403C10.7194 20.8446 12.1756 19.3482 13.6489 17.9066ZM4.57807 29.7328H16.084V27.2976H5.86138C6.38371 26.4149 6.95109 25.559 7.56109 24.7262V24.8625H19.7367V24.7262C20.3467 25.5577 20.9141 26.4149 21.4364 27.2976H18.5191V29.7328H22.7209C23.0777 30.5205 23.3784 31.3363 23.6426 32.1679H3.65638C3.92059 31.3363 4.22011 30.5205 4.57807 29.7328ZM3.02812 34.603H24.2709C24.417 35.392 24.501 36.2077 24.5521 37.0381H2.74686C2.79678 36.2077 2.88079 35.392 3.02812 34.603ZM3.65516 44.3435H7.56109V41.9083H3.0269C2.88079 41.1194 2.79678 40.3036 2.74564 39.4732H24.5509C24.501 40.3036 24.417 41.1194 24.2696 41.9083H9.99621V44.3435H23.6414C23.3772 45.1751 23.0777 45.9908 22.7197 46.7786H4.57685C4.22011 45.9908 3.91937 45.1751 3.65516 44.3435ZM7.56109 51.7852C6.95109 50.9524 6.38371 50.0964 5.86138 49.2137H21.4364C20.9153 50.0964 20.3467 50.9524 19.7367 51.7852V51.6488H7.56109V51.7852V51.7852ZM9.37403 54.0839H17.9237C16.5783 55.6668 15.1221 57.1631 13.6489 58.6047C12.1756 57.1631 10.7194 55.6668 9.37403 54.0839ZM12.4118 63.1608C12.8185 62.7761 13.2325 62.3852 13.6489 61.9895C14.0665 62.3865 14.4793 62.7773 14.8859 63.1608C15.5629 63.8013 16.224 64.4259 16.862 65.042H10.4345C11.0737 64.4259 11.7349 63.8013 12.4118 63.1608ZM5.92956 69.9122C6.52373 69.1171 7.22869 68.3062 8.00915 67.4771H19.2898C20.0703 68.3062 20.7753 69.1171 21.3694 69.9122H5.92956Z" fill="#BF926C"/>
<path d="M69.6565 66.2595H67.6926C70.5636 61.0618 72.0917 55.1883 72.0917 49.2137C72.0917 39.3844 67.9751 30.0079 60.783 23.3333L64.0886 20.0276L61.6523 17.5913L66.0197 13.2263L67.2421 14.4475L72.5921 9.05011L63.5663 0L58.2164 5.42909L59.4242 6.63691L55.0531 10.9933L52.6265 8.56674L35.5807 25.6126L33.1456 23.1774L27.7713 28.5517L44.1036 44.8841L49.4779 39.5098L47.0428 37.0747L53.8733 30.2442C57.386 33.4159 59.9745 37.5227 61.3029 42.0301C59.121 42.5098 57.481 44.4531 57.481 46.7786C57.481 49.4244 59.6044 51.5733 62.2343 51.6367C62.1381 52.6545 61.9774 53.6651 61.7607 54.6623C60.8085 54.2946 59.7785 54.0839 58.6985 54.0839H40.4351C37.0783 54.0839 34.3473 56.8149 34.3473 60.1717V61.3893H50.273C50.2158 61.7887 50.1756 62.1929 50.1756 62.6069V66.2595H33.1298C29.773 66.2595 27.042 68.9905 27.042 72.3473V76H75.7443V72.3473C75.7443 68.9905 73.0133 66.2595 69.6565 66.2595ZM63.576 3.45787L69.1561 9.05498L67.2324 10.997L61.6474 5.4157L63.576 3.45787ZM61.147 8.35732L64.2968 11.5047L59.9307 15.8684L56.776 12.7137L61.147 8.35732ZM44.1036 41.4396L31.2146 28.5505L33.1456 26.6195L46.0347 39.5086L44.1036 41.4396ZM45.3212 35.3518L37.3024 27.333L52.6265 12.0088L60.6454 20.0276L45.3212 35.3518ZM55.5974 28.5201L59.0613 25.0561C65.7981 31.2742 69.6565 40.0309 69.6565 49.2137C69.6565 53.5312 68.8067 57.7926 67.1776 61.7473C66.9402 59.3876 65.7323 57.3141 63.9657 55.92C64.3614 54.3129 64.6146 52.6655 64.7206 51.0072C66.2048 50.1719 67.2214 48.6001 67.2214 46.7786C67.2214 44.626 65.8091 42.8167 63.8695 42.175C62.5095 36.9541 59.6092 32.1752 55.5974 28.5201ZM59.9161 46.7786C59.9161 45.4356 61.0082 44.3435 62.3512 44.3435C63.6942 44.3435 64.7863 45.4356 64.7863 46.7786C64.7863 48.1216 63.6942 49.2137 62.3512 49.2137C61.0082 49.2137 59.9161 48.1216 59.9161 46.7786ZM36.9907 58.9542C37.4935 57.5369 38.8474 56.5191 40.4351 56.5191H52.7447C52.0299 57.2179 51.4443 58.0422 51.0096 58.9542H36.9907ZM73.3092 73.5649H29.4771V72.3473C29.4771 70.3335 31.1159 68.6946 33.1298 68.6946H55.0458V66.2595H52.6107V62.6069C52.6107 59.25 55.3417 56.5191 58.6985 56.5191C62.0553 56.5191 64.7863 59.25 64.7863 62.6069V66.2595H57.481V68.6946H69.6565C71.6704 68.6946 73.3092 70.3335 73.3092 72.3473V73.5649Z" fill="#BF926C"/>
</g>
<defs>
<clipPath id="clip0_502_5957">
<rect width="76" height="76" fill="white"/>
</clipPath>
</defs>
</svg>
