<svg width="50" height="76" viewBox="0 0 50 76" fill="none" xmlns="http://www.w3.org/2000/svg">
<path d="M24.6406 30.0781C17.1921 30.0781 11.1328 36.1374 11.1328 43.5859C11.1328 51.0345 17.1921 57.0938 24.6406 57.0938C32.0892 57.0938 38.1484 51.0345 38.1484 43.5859C38.1484 36.1374 32.0892 30.0781 24.6406 30.0781ZM24.6406 54.8672C18.4202 54.8672 13.3594 49.8064 13.3594 43.5859C13.3594 37.3655 18.4202 32.3047 24.6406 32.3047C30.8611 32.3047 35.9219 37.3655 35.9219 43.5859C35.9219 49.8064 30.8611 54.8672 24.6406 54.8672Z" fill="#BF926C"/>
<path d="M0.0069496 23.5018C0.00810927 23.5123 0.0104286 23.5221 0.0115883 23.532C0.016227 23.5627 0.0208656 23.5934 0.0278236 23.6236C0.030143 23.6346 0.033622 23.6456 0.0365212 23.6567C0.044059 23.6856 0.0521767 23.7141 0.061454 23.7419C0.0655129 23.7535 0.0695717 23.7645 0.0736305 23.7755C0.0846474 23.8033 0.0962441 23.8306 0.109 23.8573C0.112479 23.8637 0.114219 23.8706 0.117698 23.877L2.22655 28.0947L2.22656 53.5859C2.22656 65.9451 12.2815 76 24.6406 76C36.9998 76 47.0547 65.9451 47.0547 53.5859L47.0547 32.422L49.2482 23.6491C49.2494 23.6439 49.2494 23.6387 49.2511 23.6335C49.2581 23.6021 49.2639 23.5708 49.2685 23.5389C49.2702 23.5279 49.272 23.5175 49.2731 23.5065C49.2783 23.4641 49.2812 23.4218 49.2812 23.3789L49.2812 1.11328C49.2812 0.498077 48.7826 4.3594e-08 48.168 9.73262e-08L39.2617 8.75935e-07C38.6471 9.29667e-07 38.1484 0.498078 38.1484 1.11328L38.1484 23.3789C38.1484 23.4218 38.1513 23.4641 38.1565 23.5065C38.1577 23.5169 38.1594 23.5279 38.1612 23.5389C38.1658 23.5708 38.1716 23.6027 38.1786 23.6335C38.1803 23.6387 38.1803 23.6439 38.1815 23.6491L40.375 32.422L40.375 37.6393C36.3254 33.6431 30.7666 31.1719 24.6406 31.1719C18.6689 31.1719 13.0781 33.4901 8.90624 37.6173L8.90624 28.0947L11.0151 23.877C11.0186 23.8706 11.0203 23.8637 11.0238 23.8573C11.0366 23.8306 11.0481 23.8033 11.0592 23.7755C11.0632 23.7645 11.0673 23.7535 11.0713 23.7419C11.0806 23.7141 11.0887 23.6856 11.0963 23.6567C11.0992 23.6456 11.1027 23.6346 11.105 23.6236C11.1119 23.5934 11.1171 23.5627 11.1212 23.532C11.1224 23.5221 11.1247 23.5123 11.1258 23.5018C11.1299 23.4618 11.1328 23.4207 11.1328 23.3789L11.1328 5.56641C11.1328 2.49677 8.63604 3.55332e-06 5.5664 3.82167e-06C2.49675 4.09003e-06 -1.02406e-05 2.49677 -9.9722e-06 5.56641L-8.41498e-06 23.3789C-8.41133e-06 23.4207 0.00289076 23.4612 0.0069496 23.5018ZM8.90624 6.67969L8.90624 8.90625L2.22655 8.90625L2.22655 6.67969L8.90624 6.67969ZM7.1047 26.7188L4.0281 26.7188L2.91482 24.4922L8.21798 24.4922L7.1047 26.7188ZM2.22655 22.2656L2.22655 11.1328L8.90624 11.1328L8.90624 22.2656L2.22655 22.2656ZM43.7148 17.8125C44.9673 17.8125 46.1235 17.3968 47.0547 16.6963L47.0547 22.2656L40.375 22.2656L40.375 16.6963C41.3062 17.3968 42.4624 17.8125 43.7148 17.8125ZM40.375 12.2461C40.375 10.4045 41.8733 8.90625 43.7148 8.90625C45.5564 8.90625 47.0547 10.4045 47.0547 12.2461C47.0547 14.0876 45.5564 15.5859 43.7148 15.5859C41.8733 15.5859 40.375 14.0876 40.375 12.2461ZM46.7422 24.4922L45.0722 31.1719L42.3574 31.1719L40.6875 24.4922L46.7422 24.4922ZM42.6016 33.3984L44.8281 33.3984L44.8281 43.8511C44.2019 42.5575 43.4545 41.3323 42.6016 40.1912L42.6016 33.3984ZM47.0547 2.22656L47.0547 7.79587C46.1235 7.09543 44.9673 6.67969 43.7148 6.67969C42.4624 6.67969 41.3062 7.09543 40.375 7.79587L40.375 2.22656L47.0547 2.22656ZM24.6406 33.3984C35.7723 33.3984 44.8281 42.4549 44.8281 53.5859C44.8281 64.717 35.7723 73.7734 24.6406 73.7734C13.509 73.7734 4.45312 64.717 4.45312 53.5859L4.45312 28.9453L6.67968 28.9453L6.67968 40.5037C6.67852 40.535 6.67852 40.5663 6.67968 40.5982L6.67968 53.5859C6.67968 63.4895 14.7371 71.5469 24.6406 71.5469C28.6171 71.5469 32.3884 70.2678 35.5467 67.847C36.0344 67.473 36.1271 66.7743 35.7526 66.286C35.3786 65.7978 34.6799 65.7056 34.1922 66.0796C31.4264 68.1995 28.1231 69.3203 24.6406 69.3203C15.9646 69.3203 8.90624 62.262 8.90624 53.5859C8.90624 44.9099 15.9646 37.8516 24.6406 37.8516C33.3167 37.8516 40.375 44.9099 40.375 53.5859C40.375 57.0684 39.2542 60.3717 37.1343 63.1375C36.7603 63.6258 36.8531 64.3245 37.3407 64.6985C37.8289 65.0724 38.5276 64.9803 38.9016 64.492C41.3224 61.3337 42.6016 57.5624 42.6016 53.5859C42.6016 43.6824 34.5442 35.625 24.6406 35.625C17.8722 35.625 11.9672 39.3887 8.90624 44.9325L8.90624 40.9369C12.7633 36.1411 18.4758 33.3984 24.6406 33.3984ZM5.5664 2.22657C7.01772 2.22657 8.25509 3.1572 8.71489 4.45313L2.4179 4.45313C2.87771 3.1572 4.11507 2.22657 5.5664 2.22657Z" fill="#BF926C"/>
</svg>
