<svg width="76" height="76" viewBox="0 0 76 76" fill="none" xmlns="http://www.w3.org/2000/svg">
<path d="M70.5078 36.5345C69.4351 36.5345 68.4341 36.8447 67.5874 37.3786C66.6235 34.6318 64.0055 32.6562 60.9336 32.6562H25.7539C24.0381 32.6562 22.4641 33.273 21.2402 34.2954C20.27 31.7045 17.7692 29.8548 14.8438 29.8548C13.4124 29.8548 12.0831 30.2983 10.9844 31.0542V17.5156C10.9844 14.4872 8.52061 12.0234 5.49219 12.0234C2.46377 12.0234 0 14.4872 0 17.5156V70.5078C0 71.3275 0.664555 71.9922 1.48438 71.9922H9.5C10.3198 71.9922 10.9844 71.3275 10.9844 70.5078V63.9766H32.5078C33.3276 63.9766 33.9922 63.3119 33.9922 62.4922C33.9922 61.6725 33.3276 61.0078 32.5078 61.0078H10.9844V43.511H18.7031V50.6473C18.7031 51.877 19.3739 53.0063 20.4535 53.5945C21.5332 54.1828 22.8457 54.1341 23.8802 53.4669L23.9174 53.4428C25.1553 52.6441 26.7569 52.6411 27.9975 53.4347L28.1196 53.5126C30.3365 54.9309 33.1978 54.9251 35.4089 53.4987L35.4956 53.4427C36.7334 52.644 38.335 52.641 39.5757 53.4345L39.6977 53.5125C41.9146 54.9308 44.776 54.925 46.987 53.4985L47.0737 53.4425C48.3114 52.6438 49.913 52.6408 51.1538 53.4344L51.2758 53.5123C52.3808 54.2192 53.6455 54.5723 54.91 54.5723C56.1827 54.5722 57.4553 54.2144 58.5635 53.4992L58.6517 53.4424C59.8895 52.6438 61.4911 52.6407 62.7331 53.4351L62.8192 53.49C63.4823 53.9143 64.2593 54.0834 65.0153 53.9955V61.0078H43.5433C42.7234 61.0078 42.0589 61.6725 42.0589 62.4922C42.0589 63.3119 42.7234 63.9766 43.5433 63.9766H65.0156V70.5078C65.0156 71.3275 65.6802 71.9922 66.5 71.9922H74.5156C75.3354 71.9922 76 71.3275 76 70.5078V42.0267C76 38.9984 73.5362 36.5345 70.5078 36.5345ZM8.01562 42.0267V62.4922V69.0234H2.96875V17.5156C2.96875 16.1242 4.10073 14.9922 5.49219 14.9922C6.88364 14.9922 8.01562 16.1242 8.01562 17.5156V42.0267ZM14.8438 40.5423C12.7157 40.5423 10.9844 38.8111 10.9844 36.6829C10.9844 34.5549 12.7157 32.8235 14.8438 32.8235C16.9718 32.8235 18.7031 34.5549 18.7031 36.6829C18.7031 38.8111 16.9718 40.5423 14.8438 40.5423ZM65.0158 39.7812H50.2323C49.4125 39.7812 48.7479 40.446 48.7479 41.2656C48.7479 42.0853 49.4125 42.75 50.2323 42.75H65.0156V50.6634C65.0156 50.8532 64.9061 50.953 64.8142 51.0033C64.7223 51.0537 64.5792 51.0922 64.4182 50.989L64.3321 50.9341C62.1152 49.5158 59.2539 49.5213 57.0427 50.9481L56.9561 51.004C55.7184 51.8029 54.1169 51.8059 52.876 51.0122L52.7539 50.9342C50.537 49.5161 47.6758 49.5217 45.4646 50.9482L45.3779 51.0042C44.1403 51.8031 42.5386 51.806 41.2978 51.0123L41.1758 50.9344C40.0711 50.2277 38.8065 49.8746 37.5421 49.8746C36.2689 49.8746 34.9959 50.2326 33.8867 50.9482L33.8 51.0042C32.5623 51.8031 30.9606 51.806 29.7199 51.0123L29.5978 50.9344C27.3809 49.5164 24.5196 49.5219 22.307 50.9494L22.2698 50.9734C22.1099 51.0766 21.9667 51.0385 21.8742 50.9881C21.782 50.938 21.672 50.8381 21.672 50.6478V39.707C21.672 37.4561 23.5031 35.625 25.7541 35.625H60.9337C63.1847 35.625 65.0158 37.4561 65.0158 39.707V39.7812ZM73.0312 69.0234H67.9844V62.4922V50.6634V42.0267C67.9844 40.6352 69.1164 39.5032 70.5078 39.5032C71.8993 39.5032 73.0312 40.6352 73.0312 42.0267V69.0234Z" fill="#BF926C"/>
<path d="M39.0495 61.4427C38.7734 61.1666 38.3904 61.0078 38 61.0078C37.6096 61.0078 37.2266 61.1665 36.9505 61.4427C36.6745 61.7188 36.5156 62.1018 36.5156 62.4922C36.5156 62.8826 36.6745 63.2655 36.9505 63.5415C37.2266 63.8176 37.6096 63.9766 38 63.9766C38.3904 63.9766 38.7734 63.8177 39.0495 63.5415C39.3255 63.2655 39.4844 62.8826 39.4844 62.4922C39.4844 62.1018 39.3255 61.7188 39.0495 61.4427Z" fill="#BF926C"/>
<path d="M53.1918 12.0234H48.7598L54.2414 6.54179C54.6659 6.11726 54.7928 5.47868 54.5631 4.92412C54.3333 4.36941 53.7921 4.00781 53.1916 4.00781H45.176C44.3562 4.00781 43.6917 4.67237 43.6917 5.49219C43.6917 6.31201 44.3562 6.97656 45.176 6.97656H49.6081L44.1264 12.4582C43.7019 12.8827 43.575 13.5213 43.8048 14.0759C44.0345 14.6306 44.5757 14.9922 45.1762 14.9922H53.1918C54.0116 14.9922 54.6762 14.3276 54.6762 13.5078C54.6762 12.688 54.0116 12.0234 53.1918 12.0234Z" fill="#BF926C"/>
<path d="M38.0001 17.9609H35.6462L39.0497 14.5574C39.4743 14.1329 39.6012 13.4943 39.3714 12.9397C39.1416 12.3852 38.6003 12.0234 38 12.0234H32.0625C31.2427 12.0234 30.5781 12.688 30.5781 13.5078C30.5781 14.3276 31.2427 14.9922 32.0625 14.9922H34.4164L31.0129 18.3957C30.5884 18.8202 30.4615 19.4588 30.6912 20.0134C30.921 20.5681 31.4622 20.9297 32.0626 20.9297H38.0001C38.82 20.9297 39.4845 20.2651 39.4845 19.4453C39.4845 18.6255 38.82 17.9609 38.0001 17.9609Z" fill="#BF926C"/>
<path d="M25.5766 23.3047H24.4101L26.6262 21.0887C27.0507 20.6641 27.1776 20.0256 26.9478 19.471C26.718 18.9163 26.1768 18.5547 25.5764 18.5547H20.8264C20.0066 18.5547 19.342 19.2192 19.342 20.0391C19.342 20.8589 20.0066 21.5234 20.8264 21.5234H21.9928L19.7768 23.7395C19.3523 24.164 19.2254 24.8026 19.4551 25.3571C19.6849 25.9118 20.2261 26.2734 20.8266 26.2734H25.5766C26.3964 26.2734 27.0609 25.6089 27.0609 24.7891C27.0609 23.9692 26.3964 23.3047 25.5766 23.3047Z" fill="#BF926C"/>
<path d="M46.2264 40.2162C45.9488 39.9399 45.5673 39.7812 45.1754 39.7812C44.785 39.7812 44.4021 39.9399 44.126 40.2162C43.8499 40.4923 43.691 40.8752 43.691 41.2656C43.691 41.656 43.8499 42.039 44.126 42.3149C44.4035 42.591 44.785 42.75 45.1754 42.75C45.5658 42.75 45.9488 42.5912 46.2264 42.3149C46.5024 42.039 46.6598 41.656 46.6598 41.2656C46.6598 40.8752 46.5024 40.4923 46.2264 40.2162Z" fill="#BF926C"/>
</svg>
