<svg width="41" height="41" viewBox="0 0 41 41" fill="none" xmlns="http://www.w3.org/2000/svg">
<g clip-path="url(#clip0_502_5823)">
<path d="M37.9766 21.1547C37.8157 20.8254 37.8157 20.4478 37.9766 20.1185L39.4685 17.0666C40.2991 15.3673 39.641 13.3419 37.9702 12.4555L34.9695 10.8633C34.6457 10.6916 34.4238 10.3859 34.3604 10.0251L33.7735 6.67909C33.4467 4.81613 31.7235 3.56426 29.8511 3.82918L26.4876 4.30496C26.1245 4.35621 25.7655 4.23949 25.5022 3.98473L23.0607 1.62287C21.7013 0.307717 19.5716 0.307639 18.2122 1.62287L15.7707 3.98496C15.5072 4.2398 15.1483 4.35629 14.7853 4.30519L11.4218 3.82941C9.54876 3.56434 7.82611 4.81636 7.49932 6.67932L6.91244 10.0252C6.84908 10.3861 6.62713 10.6916 6.30346 10.8634L3.3027 12.4556C1.63193 13.342 0.973807 15.3675 1.80443 17.0668L3.29622 20.1187C3.45715 20.448 3.45715 20.8256 3.29622 21.1549L1.80435 24.2067C0.973729 25.906 1.63185 27.9314 3.30262 28.8179L6.30339 30.41C6.62713 30.5818 6.84908 30.8874 6.91244 31.2482L7.49932 34.5942C7.79681 36.2902 9.25102 37.4795 10.9223 37.4794C11.0869 37.4794 11.254 37.4678 11.4219 37.4441L14.7854 36.9683C15.1481 36.9168 15.5073 37.0337 15.7708 37.2885L18.2122 39.6504C18.8921 40.308 19.7641 40.6368 20.6364 40.6367C21.5085 40.6366 22.3811 40.3079 23.0606 39.6504L25.5022 37.2885C25.7656 37.0337 26.1247 36.9173 26.4876 36.9683L29.8511 37.4441C31.7243 37.7091 33.4467 36.4571 33.7735 34.5942L34.3605 31.2483C34.4238 30.8874 34.6458 30.5818 34.9695 30.41L37.9702 28.8179C39.641 27.9315 40.2991 25.9059 39.4685 24.2066L37.9766 21.1547ZM36.8889 26.7798L33.8881 28.372C32.9314 28.8797 32.2753 29.7827 32.0882 30.8496L31.5013 34.1955C31.3907 34.8258 30.808 35.2492 30.1742 35.1597L26.8107 34.6839C25.738 34.532 24.6766 34.8772 23.8981 35.6302L21.4566 37.992C20.9967 38.4369 20.2762 38.4369 19.8162 37.992L17.3747 35.6302C16.7168 34.9937 15.8566 34.6488 14.9586 34.6488C14.7941 34.6488 14.6283 34.6603 14.4622 34.6838L11.0987 35.1596C10.4654 35.2492 9.88219 34.8257 9.77157 34.1954L9.18462 30.8494C8.99743 29.7825 8.34134 28.8795 7.38455 28.3719L4.38379 26.7797C3.81848 26.4798 3.59582 25.7946 3.87684 25.2197L5.3687 22.1677C5.84433 21.1946 5.84433 20.0785 5.3687 19.1054L3.87684 16.0535C3.59582 15.4786 3.81848 14.7933 4.38379 14.4934L7.38455 12.9012C8.34126 12.3935 8.99743 11.4905 9.18454 10.4237L9.77141 7.07775C9.88204 6.44745 10.4647 6.02401 11.0985 6.11354L14.462 6.58932C15.5343 6.74112 16.5961 6.39604 17.3746 5.643L19.8161 3.28114C20.276 2.8363 20.9965 2.8363 21.4565 3.28114L23.898 5.643C24.6765 6.39612 25.7381 6.74112 26.8105 6.58932L30.174 6.11354C30.8074 6.02393 31.3906 6.44745 31.5011 7.07775L32.088 10.4238C32.2752 11.4906 32.9313 12.3937 33.8881 12.9012L36.8888 14.4934C37.4541 14.7933 37.6768 15.4786 37.3958 16.0535L35.9039 19.1053C35.4283 20.0784 35.4283 21.1946 35.9039 22.1677L37.3958 25.2195C37.6769 25.7946 37.4542 26.4799 36.8889 26.7798Z" fill="black"/>
<path d="M29.0648 12.208C28.6144 11.7575 27.8839 11.7575 27.4335 12.208L12.2078 27.4337C11.7574 27.8841 11.7574 28.6145 12.2078 29.065C12.4331 29.2902 12.7283 29.4029 13.0235 29.4029C13.3186 29.4029 13.6139 29.2903 13.8391 29.065L29.0647 13.8394C29.5153 13.3888 29.5153 12.6585 29.0648 12.208Z" fill="black"/>
<path d="M16.0223 10.2549C13.6901 10.2549 11.7927 12.1523 11.7927 14.4845C11.7927 16.8166 13.6901 18.7141 16.0223 18.7141C18.3545 18.7141 20.2519 16.8166 20.2519 14.4845C20.2519 12.1523 18.3545 10.2549 16.0223 10.2549ZM16.0223 16.407C14.9622 16.407 14.0998 15.5445 14.0998 14.4844C14.0998 13.4243 14.9622 12.5619 16.0223 12.5619C17.0824 12.5619 17.9449 13.4243 17.9449 14.4844C17.9448 15.5445 17.0824 16.407 16.0223 16.407Z" fill="black"/>
<path d="M25.2503 22.5591C22.9182 22.5591 21.0208 24.4565 21.0208 26.7887C21.0208 29.1208 22.9182 31.0183 25.2503 31.0183C27.5825 31.0183 29.4799 29.1208 29.4799 26.7887C29.4799 24.4565 27.5825 22.5591 25.2503 22.5591ZM25.2503 28.7112C24.1903 28.7112 23.3278 27.8487 23.3278 26.7887C23.3278 25.7286 24.1902 24.8662 25.2503 24.8662C26.3104 24.8662 27.1728 25.7286 27.1728 26.7887C27.1728 27.8487 26.3104 28.7112 25.2503 28.7112Z" fill="black"/>
</g>
<defs>
<clipPath id="clip0_502_5823">
<rect width="40" height="40" fill="white" transform="translate(0.636353 0.636475)"/>
</clipPath>
</defs>
</svg>
