<svg width="107" height="63" viewBox="0 0 107 63" fill="none" xmlns="http://www.w3.org/2000/svg">
<path d="M7.52996 55.5961C7.19196 53.854 6.24923 53.048 4.76657 53.048C3.01394 53.048 1.53127 54.1205 1.53127 57.3404C1.53127 59.3533 2.47508 61.3641 4.76657 61.3641C6.11425 61.3641 7.05806 60.6945 7.79993 59.4876L8.06882 59.6897C7.19196 61.3651 5.97927 61.9025 4.36162 61.9025C1.80124 61.9025 0.183594 59.8896 0.183594 57.3414C0.183594 54.659 2.07121 52.5139 4.36162 52.5139C5.84428 52.5139 6.97707 52.9964 7.46193 53.5864C7.79993 53.9894 7.79993 54.7933 7.79993 55.5972H7.52996V55.5961Z" fill="#573B1C"/>
<path d="M4.3616 62.0843C1.79367 62.0843 0 60.1348 0 57.3405C0 54.5785 1.95781 52.3303 4.3616 52.3303C5.78271 52.3303 7.02565 52.7666 7.60446 53.4705C7.98349 53.9219 7.98349 54.7365 7.98349 55.5974V55.7801H7.37769L7.34961 55.6328C7.03753 54.0165 6.19307 53.2319 4.76656 53.2319C2.76987 53.2319 1.71484 54.6527 1.71484 57.3416C1.71484 59.1127 2.51394 61.1826 4.76656 61.1826C5.97817 61.1826 6.89282 60.6141 7.64225 59.3922L7.74808 59.2224L8.30422 59.6361L8.23294 59.7747C7.39604 61.3728 6.2017 62.0843 4.3616 62.0843ZM4.3616 52.6957C2.15974 52.6957 0.367156 54.7795 0.367156 57.3405C0.367156 59.9177 2.00964 61.7189 4.3616 61.7189C5.9231 61.7189 6.9425 61.1923 7.69841 59.9703C6.92198 61.0429 5.98141 61.5469 4.76656 61.5469C2.24289 61.5469 1.34768 59.2825 1.34768 57.3405C1.34768 53.4469 3.48907 52.8655 4.76656 52.8655C6.24382 52.8655 7.20059 53.6339 7.61418 55.1471C7.60446 54.5442 7.55694 53.9842 7.32153 53.7005C6.93818 53.2373 5.9339 52.6957 4.3616 52.6957Z" fill="#573B1C"/>
<path d="M21.2153 62.237C19.2607 62.237 18.7219 61.3633 18.7219 59.3525V54.1875L15.3516 61.633H15.0827L11.5785 54.0553V61.633H11.0386V52.7796H12.3204L15.5546 59.7566L18.7229 52.7796H19.9356V59.3536C19.9356 60.9635 20.3395 61.9694 21.2164 61.9694V62.237H21.2153Z" fill="#573B1C"/>
<path d="M21.3977 62.4199H21.2142C18.9853 62.4199 18.5372 61.2463 18.5372 59.3527V55.0367L15.4692 61.8148H14.9628L11.7599 54.8884V61.8148H10.8528V52.596H12.4348L15.5513 59.3151L18.6009 52.596H20.1159V59.3527C20.1159 60.2619 20.2585 61.7858 21.2131 61.7858H21.3967V62.4199H21.3977ZM18.9054 53.3376V59.3538C18.9054 61.1754 19.3503 61.8954 20.6839 62.0298C20.1861 61.7761 19.7509 61.0647 19.7509 59.3538V52.9625H18.8395L15.5556 60.1952L12.2015 52.9625H11.2221V61.4505H11.3949V53.2204L15.1993 61.4505H15.2327L18.9054 53.3376Z" fill="#573B1C"/>
<path d="M23.175 57.6076H26.6123V58.5458H23.175V57.6076Z" fill="#573B1C"/>
<path d="M26.7948 58.7296H22.9915V57.426H26.7948V58.7296ZM23.3586 58.3653H26.4287V57.7924H23.3586V58.3653Z" fill="#573B1C"/>
<path d="M36.3194 61.633H35.1067V53.317H31.0626V61.633H29.8499V54.3895C29.8499 53.5856 29.7149 53.0483 28.9061 53.0483H28.6372V52.7796H36.3194V61.633Z" fill="#573B1C"/>
<path d="M36.503 61.8148H34.9231V53.4988H31.2462V61.8148H29.6663V54.3886C29.6663 53.5009 29.4881 53.2301 28.9061 53.2301H28.4536V52.596H36.503V61.8148ZM35.2903 61.4505H36.1358V52.9625H29.432C30.0335 53.2247 30.0335 53.9598 30.0335 54.3897V61.4505H30.879V53.1344H35.2903V61.4505Z" fill="#573B1C"/>
<path d="M46.1635 52.7787V61.6322H44.9498V53.3161H41.7155V54.926C41.7155 60.4253 40.9067 61.7665 39.4241 61.7665C39.1541 61.7665 38.8172 61.6988 38.6152 61.6322V61.2958C39.896 61.2302 40.5709 59.8868 40.5709 54.3876C40.5709 53.5837 40.4359 53.0463 39.6271 53.0463H39.491V52.7776H46.1635V52.7787Z" fill="#573B1C"/>
<path d="M39.424 61.9493C39.126 61.9493 38.7653 61.8762 38.5569 61.8063L38.4316 61.7644V61.1239L38.6055 61.1132C39.7059 61.0562 40.3862 59.9127 40.3862 54.3876C40.3862 53.4999 40.208 53.2291 39.626 53.2291H39.3074V52.595H46.3471V61.8139H44.7662V53.4978H41.8991V54.925C41.8991 60.046 41.2285 61.9493 39.424 61.9493ZM38.7988 61.4968C38.9845 61.5452 39.2264 61.5849 39.424 61.5849C40.6897 61.5849 41.532 60.4533 41.532 54.9271V53.1345H45.1333V61.4506H45.9799V52.9626H40.153C40.7544 53.2248 40.7544 53.9599 40.7544 54.3898C40.7544 59.3496 40.2383 61.2539 38.7988 61.4635V61.4968Z" fill="#573B1C"/>
<path d="M57.3542 61.633C57.2192 61.6728 57.0161 61.7007 56.8153 61.7007C56.2073 61.7007 55.1177 61.4987 54.5238 59.9565L54.1858 59.0849H50.4127L49.335 61.633H48.7271L52.5012 52.7796H52.9062L55.8704 59.9565C56.2894 60.9646 56.6123 61.2977 57.3531 61.3654V61.633H57.3542ZM50.6157 58.5465H53.918L52.3003 54.6571L50.6157 58.5465Z" fill="#573B1C"/>
<path d="M56.8152 61.8834C56.0183 61.8834 54.9449 61.5599 54.352 60.022L54.0605 59.2687H50.5347L49.4559 61.8168H48.4495L52.3802 52.598H53.0292L56.041 59.8877C56.4438 60.8571 56.718 61.1236 57.3703 61.1849L57.5366 61.1999V61.7706L57.4059 61.8103C57.2493 61.8566 57.029 61.8834 56.8152 61.8834ZM50.2917 58.9033H54.3132L54.6954 59.892C55.2127 61.2375 56.1349 61.5191 56.8163 61.5191C56.8962 61.5191 56.9805 61.5148 57.0582 61.5062C56.3725 61.3547 56.0593 60.885 55.703 60.0285L52.7851 52.9634H52.6253L49.0067 61.4514H49.214L50.2917 58.9033ZM54.1922 58.7302H50.3371L52.3046 54.1896L54.1922 58.7302ZM50.8943 58.3659H53.6426L52.297 55.1289L50.8943 58.3659Z" fill="#573B1C"/>
<path d="M65.9176 55.5961C65.5796 53.854 64.6369 53.048 63.1543 53.048C61.4016 53.048 59.919 54.1205 59.919 57.3404C59.919 59.3533 60.8628 61.3641 63.1543 61.3641C64.5019 61.3641 65.4457 60.6945 66.1876 59.4876L66.4576 59.6897C65.5796 61.3651 64.367 61.9025 62.7493 61.9025C60.1889 61.9025 58.5713 59.8896 58.5713 57.3414C58.5713 54.659 60.4589 52.5139 62.7493 52.5139C64.232 52.5139 65.3648 52.9964 65.8496 53.5864C66.1876 53.9894 66.1876 54.7933 66.1876 55.5972H65.9176V55.5961Z" fill="#573B1C"/>
<path d="M62.7493 62.0833C60.1814 62.0833 58.3877 60.1338 58.3877 57.3396C58.3877 54.5776 60.3444 52.3293 62.7493 52.3293C64.1704 52.3293 65.4144 52.7656 65.9921 53.4695C66.3712 53.9209 66.3712 54.7356 66.3712 55.5964V55.7791H65.7654L65.7373 55.6319C65.4252 54.0155 64.5808 53.231 63.1542 53.231C61.1576 53.231 60.1025 54.6517 60.1025 57.3406C60.1025 59.1118 60.9016 61.1816 63.1542 61.1816C64.3659 61.1816 65.2805 60.6131 66.0299 59.3912L66.1358 59.2214L66.693 59.6351L66.6206 59.7738C65.7837 61.3719 64.5905 62.0833 62.7493 62.0833ZM62.7493 52.6947C60.5464 52.6947 58.7549 54.7785 58.7549 57.3396C58.7549 59.9167 60.3973 61.7179 62.7493 61.7179C64.3108 61.7179 65.3323 61.1892 66.0882 59.9651C65.3118 61.0419 64.3702 61.546 63.1542 61.546C60.6306 61.546 59.7354 59.2816 59.7354 57.3396C59.7354 53.4459 61.8768 52.8645 63.1542 52.8645C64.6315 52.8645 65.5883 53.6329 66.0019 55.1461C65.9921 54.5432 65.9457 53.9833 65.7092 53.6995C65.3269 53.2363 64.3227 52.6947 62.7493 52.6947Z" fill="#573B1C"/>
<path d="M75.4914 52.7796V53.317H72.4592V61.633H71.2454V53.317H70.0327C68.9539 53.317 68.347 53.7877 68.347 54.8602H68.0781V53.8543C68.0781 53.317 68.2801 52.7796 69.2239 52.7796H75.4914Z" fill="#573B1C"/>
<path d="M72.6439 61.8157H71.063V53.4996H70.0339C69.0102 53.4996 68.5318 53.9317 68.5318 54.8602V55.0429H67.8958V53.8554C67.8958 53.0321 68.3558 52.598 69.224 52.598H75.6751V53.5007H72.6429V61.8157H72.6439ZM71.4291 61.4514H72.2757V53.1353H75.308V52.9634H69.224C68.5588 52.9634 68.2618 53.2385 68.2618 53.8554V54.1767C68.4854 53.4921 69.0868 53.1353 70.0328 53.1353H71.4291V61.4514Z" fill="#573B1C"/>
<path d="M83.5832 53.9877L79.2702 61.632H78.0564V54.3885C78.0564 53.5847 77.9225 53.0473 77.1126 53.0473H76.8438V52.7786H78.0564C79.0002 52.7786 79.2702 53.0473 79.2702 54.3885V60.4251L83.5832 52.7786H84.7959V61.632H83.5832V53.9877Z" fill="#573B1C"/>
<path d="M84.9795 61.8148H83.3997V54.6863L79.3771 61.8148H77.8718V54.3886C77.8718 53.5009 77.6936 53.2301 77.1115 53.2301H76.6602V52.596H78.0564C79.1406 52.596 79.4538 52.999 79.4538 54.3886V59.7267L83.4763 52.596H84.9806V61.8148H84.9795ZM83.7668 61.4505H84.6123V52.9625H83.6901L79.0856 61.1259V54.3897C79.0856 53.0732 78.8339 52.9625 78.0554 52.9625H77.6374C78.2389 53.2247 78.2389 53.9598 78.2389 54.3897V61.4505H79.1611L83.7657 53.2892V61.4505H83.7668Z" fill="#573B1C"/>
<path d="M88.4392 52.7786C89.383 52.7786 89.653 53.0473 89.653 54.3885V57.0044L92.4833 54.1876C93.1561 53.518 93.696 52.7786 94.7737 52.7786H95.4487V53.115C94.7057 53.115 94.2349 53.3171 93.493 54.0554L90.8646 56.6712L93.9649 59.8889C94.6928 60.6551 95.5815 61.2978 96.2553 61.3795V61.6331C96.0523 61.7008 95.7975 61.7675 95.3795 61.7675C94.6366 61.7675 93.7619 61.4988 92.4812 60.1575L89.6508 57.2064V61.6331H88.4371V54.3896C88.4371 53.5857 88.3032 53.0484 87.4933 53.0484H87.2244V52.7797H88.4392V52.7786Z" fill="#573B1C"/>
<path d="M95.3817 61.9493C94.7111 61.9493 93.7608 61.7601 92.3505 60.2824L89.8366 57.6623V61.8139H88.2557V54.3876C88.2557 53.4999 88.0775 53.2291 87.4954 53.2291H87.043V52.595H88.4392C89.5234 52.595 89.8366 52.998 89.8366 54.3876V56.5618L92.3538 54.0577C92.4445 53.9674 92.533 53.875 92.6205 53.7826C93.1831 53.199 93.7652 52.595 94.7738 52.595H95.6323V53.2957H95.4487C94.7317 53.2957 94.3051 53.5032 93.6237 54.1813L91.1238 56.6703L94.0999 59.7601C94.8764 60.5769 95.7111 61.1261 96.2802 61.1938L96.4411 61.2153V61.7634L96.3158 61.8053C96.1009 61.8783 95.8223 61.9493 95.3817 61.9493ZM89.8118 57.1077L92.6173 60.032C93.9239 61.4001 94.7489 61.5849 95.3828 61.5849C95.6539 61.5849 95.8504 61.5559 96.0102 61.5162C95.3796 61.3507 94.5869 60.8069 93.8343 60.0159L90.6098 56.6682L93.3656 53.9266C93.9736 53.3215 94.4206 53.0475 95.0005 52.9637H94.7759C93.9239 52.9637 93.4444 53.4634 92.8883 54.0405C92.7987 54.1329 92.708 54.2275 92.6151 54.3199L89.8118 57.1077ZM88.6228 61.4506H89.4694V54.3898C89.4694 53.0733 89.2178 52.9626 88.4392 52.9626H88.0213C88.6228 53.2248 88.6228 53.9599 88.6228 54.3898V61.4506Z" fill="#573B1C"/>
<path d="M106.102 61.633C105.968 61.6728 105.765 61.7007 105.563 61.7007C104.955 61.7007 103.865 61.4987 103.271 59.9565L102.934 59.0849H99.1603L98.0815 61.633H97.4746L101.249 52.7796H101.654L104.618 59.9565C105.037 60.9646 105.36 61.2977 106.101 61.3654V61.633H106.102ZM99.3622 58.5465H102.666L101.048 54.6571L99.3622 58.5465Z" fill="#573B1C"/>
<path d="M105.563 61.8834C104.766 61.8834 103.692 61.5599 103.1 60.022L102.808 59.2687H99.2823L98.2035 61.8168H97.197L101.128 52.598H101.778L101.824 52.7108L104.789 59.8877C105.192 60.8571 105.466 61.1236 106.118 61.1849L106.284 61.1999V61.7706L106.153 61.8103C105.997 61.8566 105.776 61.8834 105.563 61.8834ZM99.0382 58.9033H103.062L103.444 59.892C103.961 61.2375 104.882 61.5191 105.564 61.5191C105.645 61.5191 105.728 61.5148 105.807 61.5062C105.121 61.3547 104.807 60.885 104.451 60.0285L101.533 52.9634H101.373L97.7542 61.4514H97.9605L99.0382 58.9033ZM102.939 58.7302H99.0825L101.05 54.1896L102.939 58.7302ZM99.6408 58.3659H102.39L101.044 55.1289L99.6408 58.3659Z" fill="#573B1C"/>
<path fill-rule="evenodd" clip-rule="evenodd" d="M67.061 2.27935C66.4368 2.27935 65.9249 2.79091 65.9249 3.40779C65.9249 3.78608 66.1226 4.09667 66.4023 4.30624L63.5697 8.17196L61.383 2.59961C61.8052 2.43518 62.1054 2.03109 62.1054 1.5507C62.1054 0.93059 61.5968 0.420105 60.9705 0.420105C60.3453 0.420105 59.8345 0.93059 59.8345 1.55177C59.8345 2.03109 60.1358 2.43518 60.5591 2.60068L58.3648 8.17303L55.5355 4.30732C55.8195 4.09775 56.015 3.78716 56.015 3.40886C56.015 2.79198 55.5053 2.28042 54.8811 2.28042C54.2548 2.28042 53.7429 2.79198 53.7429 3.40886C53.7429 4.02789 54.2548 4.53838 54.8811 4.53838C54.9427 4.53838 55.0074 4.52011 55.0712 4.50076L56.015 9.89363H60.9705H65.9249L66.8688 4.50076C66.9346 4.52118 66.9929 4.53838 67.061 4.53838C67.6819 4.53838 68.1959 4.02789 68.1959 3.40886C68.1948 2.79091 67.6819 2.27935 67.061 2.27935Z" fill="#573B1C"/>
<path fill-rule="evenodd" clip-rule="evenodd" d="M69.3137 21.5657C65.452 21.239 61.8723 33.0339 59.5635 33.0726C58.6316 33.121 57.3908 30.172 55.8455 27.209C54.2797 24.2202 52.3975 21.2186 50.2097 21.3615C45.2563 21.6979 43.4972 32.8286 42.6646 33.452C42.0059 33.9496 41.2078 33.3767 40.5351 32.8157C39.9185 32.2784 39.4174 31.7572 39.2533 32.0806C38.9218 32.7448 43.8233 36.9297 44.7541 35.4584C46.4636 32.8286 48.511 25.1746 50.3274 25.137C52.4547 25.137 54.9935 35.84 59.3313 35.8948C61.8647 35.9077 63.9111 33.0844 65.5914 30.2794C67.2738 27.4497 68.5837 24.6211 69.6333 24.662C76.9451 24.9919 76.5596 40.8309 55.4254 40.7385C47.8415 40.7234 35.4532 37.6336 35.1768 29.3186C34.9025 22.7941 42.8838 16.0396 54.6663 16.1825C57.4232 16.2373 59.6272 16.5802 62.274 17.0939C64.5147 17.2841 66.9941 17.6194 69.2597 17.8214L69.5286 16.8628L72.4507 17.2841L69.9638 16.1438L71.4 15.2894C69.9681 14.1943 68.7046 12.765 66.668 12.0137C65.6983 11.7225 64.4294 11.6193 63.1638 11.6193C62.3388 11.6193 61.5159 11.6602 60.7773 11.7203C58.5711 11.8676 57.0949 12.3856 55.2127 12.4297C50.0056 12.4759 44.6559 13.4678 41.5059 14.6672C33.0915 17.8386 29.5722 24.4062 29.8983 30.0709C30.34 37.7325 40.8536 44.4956 53.9341 44.4978C80.4148 44.5053 81.5216 22.6125 69.3137 21.5657ZM64.2761 13.6924C64.6864 13.7171 65.0082 13.9299 64.992 14.1621C64.9715 14.4017 64.627 14.5662 64.208 14.5479C63.7966 14.5243 63.4759 14.3104 63.4953 14.0793C63.5083 13.8515 63.8582 13.6731 64.2761 13.6924Z" fill="#D7B2A6"/>
</svg>
