<svg width="19" height="23" viewBox="0 0 19 23" fill="none" xmlns="http://www.w3.org/2000/svg">
<path d="M13.4224 19.1682C13.4224 20.0686 13.4574 21.0065 13.4224 21.9443C13.3875 22.8447 12.8977 23.1448 12.0582 22.8822C12.0582 21.2691 12.0582 19.6184 12.0582 17.9678C14.5068 17.5926 15.9759 15.942 16.5706 13.3535C16.6405 13.0534 16.5706 12.6782 16.4306 12.4156C15.0315 9.86461 13.5973 7.31361 12.1632 4.76262C11.5336 3.63718 10.834 2.51173 11.0438 1.12369C11.1488 1.08617 11.2537 1.01115 11.3587 0.973633C11.5336 1.38629 11.7434 1.79895 11.9183 2.1741C12.2331 2.81185 12.478 3.52463 12.8977 4.08735C14.8566 6.86344 16.8154 9.56449 18.7742 12.3031C18.8792 12.4531 18.9491 12.7907 18.8792 12.9408C18.0747 15.0041 17.1652 16.9549 15.3463 18.2304C14.8566 18.643 14.192 18.8306 13.4224 19.1682Z" fill="black"/>
<path d="M0.0262344 13.3909C1.53034 14.8164 3.13938 15.7168 5.1332 15.6793C7.23195 15.6042 9.01589 13.8786 9.01589 11.6277C9.01589 10.1271 8.70107 8.66402 8.52618 7.16343C8.4912 6.71326 8.42124 6.26308 8.38626 5.85042C8.4912 5.8129 8.56116 5.81291 8.6661 5.77539C9.29572 7.87621 10.1352 9.93952 10.555 12.0779C10.9747 14.2162 9.85539 15.7918 8.21137 16.8422C5.20316 18.793 1.00565 17.1798 0.0262344 13.7285C-0.0087448 13.6535 -0.0087448 13.5784 0.0262344 13.3909Z" fill="black"/>
</svg>
