<svg width="22" height="23" viewBox="0 0 22 23" fill="none" xmlns="http://www.w3.org/2000/svg">
<path d="M17.1637 2.79793C18.5749 3.221 19.147 2.83639 19.9098 0.990234C20.2531 0.990234 20.5964 0.990234 21.1304 0.990234C20.7108 1.95177 20.4057 2.87485 19.9098 3.68254C19.6429 4.10562 19.0326 4.56716 18.5749 4.56716C17.8502 4.60562 17.5832 4.99023 17.2018 5.49023C15.4091 7.83639 14.2649 10.4902 13.9216 13.4133C13.6165 15.8748 13.4258 18.2979 14.7607 20.5672C15.2184 21.2979 15.7906 21.9902 16.2864 22.6825C16.2101 22.7979 16.0957 22.9133 16.0194 22.9902C15.4854 22.6056 14.837 22.3364 14.3793 21.8364C13.0444 20.3364 12.5104 18.4902 12.0527 16.5672C11.9383 15.9902 11.8239 15.4518 11.6713 14.8749C11.3662 13.721 10.3745 13.1056 9.30652 13.5672C8.00971 14.1056 6.82732 13.9518 5.75936 13.1441C3.89043 11.7979 2.05964 10.2979 0.228849 8.83639C0.152566 8.75947 0.0381415 8.68254 0.0381415 8.60562C2.84176e-09 8.221 0 7.83639 0 7.49023C0.381415 7.56716 0.839112 7.49023 1.06796 7.721C2.63176 9.10562 4.11928 10.6441 5.72122 11.9902C7.55201 13.5287 8.12413 13.4902 10.0312 12.0287C12.7774 9.91331 14.7607 7.18254 16.439 4.18254C16.6678 3.75947 16.8967 3.29793 17.1637 2.79793Z" fill="#000000"/>
</svg>
