<svg width="62" height="64" viewBox="0 0 62 64" fill="none" xmlns="http://www.w3.org/2000/svg">
<path d="M49.9306 5.25874C54.036 6.48951 55.7004 5.37063 57.9195 0C58.9182 0 59.9168 0 61.4702 0C60.2496 2.7972 59.362 5.48252 57.9195 7.83217C57.1428 9.06294 55.3675 10.4056 54.036 10.4056C51.9279 10.5175 51.1512 11.6364 50.0416 13.0909C44.8266 19.9161 41.4979 27.6364 40.4993 36.1399C39.6116 43.3007 39.0569 50.3497 42.9404 56.951C44.2718 59.0769 45.9362 61.0909 47.3786 63.1049C47.1567 63.4406 46.8238 63.7762 46.6019 64C45.0485 62.8811 43.1623 62.0979 41.8308 60.6434C37.9473 56.2797 36.3939 50.9091 35.0624 45.3147C34.7295 43.6364 34.3967 42.0699 33.9528 40.3916C33.0652 37.035 30.1803 35.2448 27.0735 36.5874C23.301 38.1538 19.8613 37.7063 16.7545 35.3566C11.3176 31.4406 5.99168 27.0769 0.665742 22.8252C0.443828 22.6014 0.110957 22.3776 0.110957 22.1538C8.26694e-09 21.035 0 19.9161 0 18.9091C1.10957 19.1329 2.44105 18.9091 3.1068 19.5804C7.65603 23.6084 11.9834 28.0839 16.6435 32C21.9695 36.4755 23.6338 36.3636 29.1817 32.1119C37.1706 25.958 42.9403 18.014 47.8225 9.28671C48.4882 8.05594 49.1539 6.71329 49.9306 5.25874Z" fill="#9D7B53"/>
</svg>
