<svg width="22" height="23" viewBox="0 0 22 23" fill="none" xmlns="http://www.w3.org/2000/svg">
<path d="M12.0685 0.973633C11.6795 1.8138 11.3803 2.62396 10.9315 3.3141C10.5127 3.91421 9.97411 4.45432 9.40563 4.93442C6.11446 7.66496 5.72551 11.0856 6.83254 14.9564C7.67029 17.807 9.16628 20.3275 11.0811 22.5779C11.0213 22.6979 10.9914 22.818 10.9315 22.938C10.4229 22.7579 9.70483 22.7279 9.43555 22.3679C7.01206 19.0972 4.6484 15.7666 4.16968 11.5657C4.02008 10.1855 4.43896 8.74517 4.58856 7.3949C3.12249 7.84499 1.68634 10.0354 2.04538 12.1058C2.31466 13.6061 2.82329 15.1664 3.63113 16.4267C4.40904 17.6269 4.94759 18.7972 5.18695 20.1774C5.36647 21.0776 5.60583 21.9778 5.84519 22.968C4.94759 23.028 4.4988 22.6079 4.3492 21.7978C4.22952 21.2276 4.16968 20.5975 3.93032 20.0574C3.57129 19.2472 3.21225 18.3171 2.61386 17.7169C0.639153 15.6465 -0.467877 13.3061 0.190357 10.4255C0.669073 8.3851 2.10522 7.03483 3.75081 5.8346C4.55864 5.23448 5.42631 4.72438 6.29398 4.24428C8.11909 3.19407 9.97411 2.14386 12.0685 0.973633Z" fill="white"/>
<path d="M19.3684 1.27369C20.8644 0.853607 21.0738 0.943625 21.1636 2.17387C21.4029 5.47452 21.9714 8.80518 21.7021 12.0758C21.4328 15.4665 20.3856 18.8272 19.6077 22.1878C19.5479 22.4879 19.0692 22.6979 18.5605 22.848C20.1762 15.6165 20.5652 8.44511 19.3684 1.27369Z" fill="white"/>
</svg>
